<svg xmlns="http://www.w3.org/2000/svg" version="1.1" xmlns:xlink="http://www.w3.org/1999/xlink" xmlns:svgjs="http://svgjs.com/svgjs" width="1024" height="1024"><svg xmlns="http://www.w3.org/2000/svg" width="1024" height="1024" viewBox="0 0 1024 1024">
<g>
<path d="M 593.81,826.00 L 587.23,826.01 L 574.43,826.02 L 568.09,826.02 L 555.82,826.04 L 549.75,826.04 L 538.08,826.06 L 532.33,826.07 L 521.33,826.09 L 515.92,826.10 L 505.67,826.12 L 500.64,826.13 L 491.19,826.15 L 486.58,826.16 L 478.01,826.19 L 473.84,826.20 L 466.23,826.23 L 462.55,826.25 L 455.95,826.28 L 454.37,826.28 L 451.41,826.30 L 449.97,826.31 L 447.28,826.32 L 445.98,826.33 L 443.59,826.35 L 442.43,826.36 L 440.33,826.37 L 439.32,826.38 L 437.53,826.40 L 436.67,826.41 L 435.19,826.42 L 434.49,826.43 L 433.33,826.45 L 432.80,826.46 L 431.97,826.48 L 431.60,826.48 L 431.12,826.50 L 430.78,826.53 L 430.40,826.68 L 429.64,826.75 L 429.29,826.75 L 428.85,826.52 L 428.84,826.50 L 428.18,826.47 L 427.75,826.45 L 426.29,826.41 L 425.47,826.39 L 423.27,826.36 L 422.76,826.35 L 424.52,826.37 L 425.88,826.37 L 428.38,826.37 L 429.24,826.35 L 430.02,826.33 L 430.29,826.32 L 430.74,826.29 L 430.83,826.27 L 431.49,826.24 L 432.43,826.23 L 433.15,826.22 L 434.74,826.20 L 435.76,826.19 L 437.95,826.17 L 439.27,826.17 L 442.04,826.15 L 443.62,826.14 L 446.93,826.13 L 448.77,826.12 L 452.58,826.11 L 454.67,826.10 L 458.95,826.09 L 461.25,826.08 L 465.96,826.07 L 468.47,826.06 L 473.58,826.05 L 476.28,826.05 L 481.76,826.04 L 484.62,826.03 L 490.43,826.02 L 493.44,826.02 L 505.79,826.01 L 512.33,826.01 L 525.61,826.00 L 599.01,826.00 M 519.63,375.35 L 523.05,375.53 L 529.88,375.99 L 533.27,376.36 L 540.05,377.19 L 543.41,377.75 L 550.11,378.96 L 553.42,379.71 L 560.02,381.30 L 563.27,382.23 L 569.75,384.20 L 572.93,385.32 L 579.25,387.66 L 582.35,388.97 L 588.50,391.69 L 591.50,393.19 L 600.14,397.81 L 605.75,401.11 L 608.48,402.87 L 613.89,406.46 L 616.52,408.36 L 621.71,412.22 L 624.23,414.25 L 629.20,418.37 L 631.60,420.53 L 636.34,424.90 L 638.61,427.18 L 643.11,431.79 L 645.26,434.18 L 649.50,439.01 L 651.52,441.51 L 655.49,446.55 L 657.38,449.14 L 661.08,454.39 L 662.82,457.08 L 666.23,462.50 L 667.83,465.28 L 670.94,470.88 L 672.39,473.74 L 675.20,479.50 L 676.49,482.43 L 678.98,488.34 L 680.11,491.34 L 682.28,497.38 L 683.23,500.45 L 685.07,506.61 L 685.85,509.73 L 686.85,513.71 L 687.45,516.17 L 687.72,517.37 L 688.72,522.15 L 689.11,524.84 L 689.49,527.62 L 689.66,529.18 L 689.97,532.41 L 690.11,534.26 L 690.37,538.12 L 690.48,540.35 L 690.69,545.02 L 690.78,547.72 L 690.86,550.48 L 690.90,551.96 L 690.97,555.00 L 691.01,556.62 L 691.07,559.95 L 691.10,561.74 L 691.15,565.39 L 691.18,567.34 L 691.22,571.32 L 691.24,573.45 L 691.28,577.80 L 691.30,580.11 L 691.33,584.85 L 691.35,587.36 L 691.37,592.50 L 691.38,595.22 L 691.40,600.79 L 691.41,603.74 L 691.43,609.75 L 691.43,612.93 L 691.44,619.41 L 691.45,622.84 L 691.46,629.81 L 691.46,633.49 L 691.46,640.98 L 691.47,644.93 L 691.47,652.96 L 691.47,657.18 L 691.47,665.76 L 691.47,670.27 L 691.48,679.44 L 691.48,684.25 L 691.50,825.98 L 691.23,825.98 L 681.77,825.98 L 676.97,825.98 L 666.92,825.99 L 661.82,825.99 L 651.17,825.99 L 634.48,825.99 L 632.86,825.99 L 632.43,820.75 L 631.71,815.87 L 631.36,814.21 L 631.18,813.47 L 630.79,812.05 L 630.60,811.50 L 629.96,809.55 L 629.49,808.02 L 629.25,807.21 L 628.29,803.88 L 627.93,802.50 L 627.09,799.89 L 626.26,797.70 L 625.75,796.49 L 623.51,791.37 L 622.32,789.05 L 620.64,785.66 L 619.66,783.57 L 619.27,782.69 L 618.56,781.04 L 618.34,780.46 L 618.00,779.46 L 618.00,779.28 L 617.77,778.63 L 617.41,778.11 L 617.15,777.84 L 615.89,776.69 L 615.09,776.20 L 613.73,775.27 L 613.14,774.72 L 612.99,774.46 L 612.77,773.94 L 612.79,773.67 L 612.92,773.11 L 613.10,772.79 L 613.38,771.13 L 612.87,770.03 L 612.26,769.41 L 610.58,767.52 L 609.41,766.05 L 609.00,765.43 L 608.20,764.29 L 607.51,763.35 L 607.12,762.83 L 605.49,760.68 L 604.72,759.72 L 602.77,757.04 L 601.71,755.08 L 601.29,753.75 L 600.88,752.36 L 600.70,751.53 L 600.35,749.76 L 600.19,748.71 L 599.90,746.49 L 599.77,745.17 L 599.52,742.39 L 599.42,740.75 L 599.21,737.31 L 599.12,735.32 L 598.95,731.12 L 598.88,728.71 L 598.74,723.67 L 598.67,720.80 L 598.56,714.81 L 598.50,711.43 L 598.45,707.98 L 598.42,706.16 L 598.38,702.43 L 598.35,700.46 L 598.30,696.45 L 598.28,694.33 L 598.24,690.02 L 598.21,687.75 L 598.17,683.12 L 598.15,680.69 L 598.10,675.74 L 598.08,673.14 L 598.03,667.86 L 598.01,665.08 L 597.96,659.45 L 597.93,656.50 L 597.81,642.02 L 597.72,633.12 L 597.68,629.02 L 597.59,621.07 L 597.55,617.42 L 597.46,610.36 L 597.41,607.14 L 597.32,600.91 L 597.27,598.09 L 597.16,592.65 L 597.11,590.21 L 597.00,585.50 L 596.94,583.41 L 596.81,579.38 L 596.75,577.61 L 596.61,574.21 L 596.54,572.73 L 596.38,569.91 L 596.30,568.70 L 596.13,566.40 L 596.04,565.43 L 595.85,563.61 L 595.75,562.86 L 595.54,561.45 L 595.43,560.89 L 595.20,559.85 L 595.07,559.45 L 594.54,558.14 L 594.23,557.83 L 593.18,557.48 L 591.87,557.28 L 590.98,557.19 L 589.06,557.04 L 587.95,557.00 L 585.64,556.92 L 584.42,556.92 L 582.30,556.89 L 580.63,556.84 L 579.69,556.80 L 575.68,556.62 L 573.42,556.49 L 563.90,555.86 L 559.50,555.46 L 551.99,554.91 L 546.40,554.60 L 543.40,554.49 L 537.28,554.27 L 534.13,554.20 L 527.77,554.08 L 524.60,554.06 L 518.29,554.03 L 515.25,554.06 L 509.25,554.13 L 506.47,554.20 L 501.08,554.37 L 498.70,554.49 L 496.39,554.62 L 495.33,554.70 L 493.27,554.85 L 492.36,554.94 L 489.86,555.15 L 487.75,555.31 L 486.52,555.40 L 483.93,555.57 L 482.48,555.67 L 479.51,555.86 L 477.90,555.95 L 471.23,556.35 L 467.68,556.54 L 460.51,556.92 L 457.00,557.08 L 447.03,557.62 L 444.00,557.80 L 442.61,557.90 L 439.92,558.08 L 438.73,558.17 L 436.44,558.35 L 435.47,558.44 L 433.66,558.61 L 432.96,558.69 L 431.70,558.84 L 431.30,558.91 L 430.66,559.04 L 430.60,559.10 L 430.13,559.80 L 429.84,560.54 L 429.71,561.06 L 429.44,562.19 L 429.31,562.91 L 429.07,564.46 L 428.96,565.39 L 428.74,567.37 L 428.63,568.53 L 428.44,570.96 L 428.35,572.35 L 428.17,575.26 L 428.09,576.91 L 427.93,580.32 L 427.86,582.22 L 427.72,586.15 L 427.66,588.32 L 427.54,592.80 L 427.49,595.25 L 427.39,600.29 L 427.35,603.04 L 427.26,608.67 L 427.23,611.71 L 427.16,617.96 L 427.13,621.32 L 427.08,628.19 L 427.06,631.87 L 427.02,639.41 L 427.01,643.43 L 426.99,651.63 L 426.98,656.00 L 426.95,668.86 L 426.93,676.86 L 426.91,680.60 L 426.88,687.89 L 426.85,691.29 L 426.81,697.91 L 426.78,700.99 L 426.72,706.98 L 426.68,709.76 L 426.61,715.16 L 426.56,717.66 L 426.47,722.52 L 426.42,724.77 L 426.32,729.13 L 426.25,731.13 L 426.13,735.03 L 426.06,736.82 L 425.91,740.30 L 425.83,741.90 L 425.67,745.00 L 425.58,746.42 L 425.39,749.19 L 425.29,750.46 L 424.85,755.27 L 424.60,757.33 L 424.07,761.25 L 423.76,763.00 L 423.20,766.00 L 422.87,767.66 L 422.70,768.34 L 422.38,769.60 L 422.22,770.10 L 421.88,771.01 L 421.70,771.36 L 420.92,772.46 L 420.40,772.70 L 419.25,773.00 L 418.45,773.00 L 417.19,773.22 L 416.39,773.61 L 415.99,773.94 L 415.18,774.69 L 414.76,775.22 L 413.90,776.37 L 413.43,777.12 L 409.57,784.06 L 407.18,789.19 L 406.12,791.91 L 404.09,797.41 L 403.25,800.20 L 401.70,805.78 L 401.14,808.50 L 400.42,812.14 L 400.03,814.17 L 399.88,815.03 L 399.63,816.63 L 399.54,817.29 L 399.41,818.54 L 399.39,819.06 L 399.43,820.87 L 399.63,821.54 L 400.14,822.80 L 400.56,823.45 L 401.75,824.87 L 402.25,825.20 L 402.59,825.32 L 403.32,825.56 L 403.81,825.65 L 404.88,825.81 L 405.58,825.87 L 407.10,825.98 L 408.07,826.03 L 410.15,826.10 L 411.43,826.14 L 414.18,826.21 L 415.85,826.24 L 419.53,826.32 L 419.17,826.31 L 417.63,826.30 L 414.05,826.26 L 412.18,826.25 L 407.97,826.22 L 405.79,826.21 L 401.00,826.18 L 398.53,826.17 L 393.19,826.14 L 390.46,826.13 L 384.62,826.11 L 381.64,826.10 L 375.33,826.08 L 372.13,826.07 L 365.40,826.05 L 361.99,826.04 L 354.89,826.03 L 351.29,826.02 L 343.85,826.01 L 340.09,826.00 L 333.93,826.00 L 334.28,678.25 L 334.31,666.02 L 334.33,658.21 L 334.34,654.47 L 334.36,647.10 L 334.37,643.58 L 334.39,636.65 L 334.40,633.33 L 334.42,626.81 L 334.43,623.70 L 334.45,617.59 L 334.46,614.67 L 334.48,608.94 L 334.49,606.22 L 334.51,600.86 L 334.52,598.32 L 334.54,593.33 L 334.55,590.96 L 334.58,586.31 L 334.59,584.12 L 334.61,579.80 L 334.63,577.77 L 334.65,573.77 L 334.67,571.89 L 334.69,568.20 L 334.71,566.47 L 334.74,563.07 L 334.75,561.48 L 334.81,555.38 L 334.85,552.71 L 334.92,547.62 L 334.96,545.42 L 335.05,541.24 L 335.09,539.46 L 335.19,536.07 L 335.24,534.64 L 335.35,531.94 L 335.41,530.80 L 335.53,528.68 L 335.60,527.79 L 335.74,526.12 L 335.82,525.43 L 336.14,522.96 L 336.33,522.00 L 339.45,508.47 L 341.87,499.84 L 343.26,495.70 L 346.15,487.54 L 347.79,483.62 L 351.18,475.89 L 353.07,472.17 L 356.99,464.81 L 359.15,461.26 L 363.61,454.24 L 366.06,450.84 L 371.09,444.10 L 373.83,440.82 L 379.46,434.33 L 382.50,431.16 L 388.62,424.98 L 392.65,421.14 L 394.65,419.34 L 398.64,415.83 L 400.65,414.18 L 404.67,410.96 L 406.71,409.44 L 410.81,406.47 L 412.91,405.06 L 417.14,402.30 L 419.32,400.98 L 423.74,398.39 L 426.03,397.14 L 430.68,394.68 L 433.11,393.49 L 442.48,389.24 L 448.86,386.68 L 452.10,385.55 L 458.61,383.37 L 461.91,382.42 L 468.55,380.62 L 471.90,379.86 L 478.62,378.44 L 482.01,377.87 L 488.81,376.82 L 492.22,376.44 L 499.06,375.76 L 502.49,375.57 L 509.35,375.27 L 512.78,375.27 M 186.94,664.71 L 186.92,684.80 L 186.92,694.66 L 186.92,704.48 L 186.92,709.30 L 186.92,718.90 L 186.93,723.58 L 186.93,732.87 L 186.94,737.38 L 186.95,746.29 L 186.96,750.58 L 186.98,759.04 L 186.99,763.07 L 187.01,771.01 L 187.02,774.75 L 187.05,782.08 L 187.07,785.49 L 187.10,792.15 L 187.12,795.19 L 187.16,801.09 L 187.18,803.74 L 187.22,808.81 L 187.24,811.01 L 187.29,815.18 L 187.32,816.90 L 187.37,820.09 L 187.40,821.30 L 187.43,822.43 L 187.45,822.90 L 187.48,823.76 L 187.49,824.08 L 187.53,824.66 L 187.54,824.84 L 187.58,825.12 L 187.57,825.12 L 187.54,824.84 L 187.52,824.66 L 187.49,824.08 L 187.48,823.76 L 187.45,822.90 L 187.43,822.43 L 187.40,821.29 L 187.37,820.09 L 187.32,816.90 L 187.29,815.18 L 187.24,811.01 L 187.22,808.81 L 187.18,803.74 L 187.15,801.09 L 187.12,795.19 L 187.10,792.15 L 187.07,785.49 L 187.05,782.08 L 187.02,774.75 L 187.01,771.00 L 186.99,763.07 L 186.98,759.04 L 186.96,750.57 L 186.95,746.29 L 186.94,737.37 L 186.93,732.87 L 186.93,723.58 L 186.92,718.89 L 186.92,709.30 L 186.92,704.47 L 186.92,694.65 L 186.92,684.79 L 186.94,664.71 L 186.95,661.57 M 837.95,682.04 L 837.96,691.06 L 837.97,708.83 L 837.98,717.62 L 837.97,734.56 L 837.97,738.72 L 837.96,746.79 L 837.96,750.78 L 837.95,758.47 L 837.94,762.26 L 837.92,769.51 L 837.92,773.07 L 837.89,779.81 L 837.88,783.11 L 837.86,789.28 L 837.84,792.29 L 837.81,797.83 L 837.80,800.52 L 837.76,805.36 L 837.74,807.69 L 837.70,811.77 L 837.68,813.71 L 837.64,816.98 L 837.62,818.50 L 837.57,820.88 L 837.54,821.96 L 837.48,823.39 L 837.40,824.41 L 837.39,824.42 L 837.48,823.40 L 837.54,821.97 L 837.56,820.89 L 837.61,818.51 L 837.64,816.99 L 837.68,813.72 L 837.70,811.78 L 837.74,807.70 L 837.76,805.37 L 837.80,800.53 L 837.81,797.84 L 837.84,792.30 L 837.86,789.30 L 837.88,783.13 L 837.89,779.82 L 837.91,773.09 L 837.92,769.52 L 837.94,762.28 L 837.95,758.49 L 837.96,750.79 L 837.96,746.80 L 837.97,738.73 L 837.97,734.58 L 837.98,717.65 L 837.97,708.85 L 837.96,691.09 L 837.95,682.07 L 837.95,678.25 M 419.63,206.00 L 418.39,206.13 L 419.63,206.00 L 420.25,206.00 L 421.39,205.73 L 420.25,206.00 Z" fill="rgba(43,33,37,1)"></path>
<path d="M 597.69,717.91 L 597.65,709.09 L 597.63,705.04 L 597.59,697.18 L 597.57,693.58 L 597.53,686.61 L 597.51,683.44 L 597.47,677.31 L 597.44,674.53 L 597.39,669.18 L 597.37,666.77 L 597.31,662.14 L 597.28,660.08 L 597.22,656.12 L 597.19,654.37 L 597.12,651.03 L 597.08,649.57 L 597.01,646.78 L 596.96,645.58 L 596.88,643.29 L 596.83,642.32 L 596.73,640.49 L 596.68,639.72 L 596.57,638.27 L 596.51,637.68 L 596.39,636.57 L 596.32,636.13 L 596.04,634.61 L 595.88,634.14 L 594.39,630.83 L 593.85,629.96 L 593.61,629.65 L 593.13,629.11 L 592.93,629.00 L 592.19,628.83 L 591.30,628.72 L 590.66,628.68 L 589.27,628.58 L 588.39,628.54 L 586.53,628.45 L 585.43,628.42 L 583.13,628.34 L 581.83,628.31 L 579.13,628.24 L 577.64,628.22 L 574.58,628.16 L 572.92,628.14 L 569.53,628.09 L 567.72,628.07 L 560.21,628.00 L 556.09,627.98 L 547.64,627.95 L 543.16,627.94 L 534.05,627.94 L 529.34,627.95 L 519.85,627.99 L 515.06,628.01 L 505.48,628.07 L 500.74,628.12 L 491.33,628.21 L 486.79,628.26 L 477.84,628.38 L 473.63,628.45 L 465.41,628.59 L 461.67,628.67 L 458.00,628.75 L 456.28,628.80 L 452.90,628.88 L 451.34,628.93 L 448.30,629.02 L 446.91,629.07 L 444.24,629.17 L 443.05,629.22 L 440.78,629.33 L 439.80,629.38 L 437.96,629.49 L 437.22,629.55 L 435.85,629.66 L 435.36,629.72 L 434.50,629.84 L 434.27,629.90 L 432.12,630.97 L 430.94,632.16 L 430.44,633.05 L 429.51,635.02 L 429.10,636.35 L 428.33,639.25 L 427.98,641.09 L 427.84,642.35 L 427.75,643.65 L 427.71,644.53 L 427.63,646.42 L 427.59,647.57 L 427.51,650.00 L 427.48,651.40 L 427.41,654.33 L 427.38,655.97 L 427.32,659.35 L 427.29,661.21 L 427.24,665.01 L 427.21,667.05 L 427.16,671.22 L 427.14,673.44 L 427.10,677.94 L 427.08,680.31 L 427.05,685.10 L 427.04,687.60 L 426.98,697.80 L 426.97,703.17 L 426.94,714.07 L 426.94,719.67 L 426.94,730.93 L 426.94,736.58 L 426.97,747.87 L 426.99,753.40 L 427.04,764.38 L 427.07,769.63 L 427.14,779.96 L 427.19,784.76 L 427.23,789.50 L 427.26,791.76 L 427.31,796.20 L 427.34,798.29 L 427.39,802.39 L 427.43,804.30 L 427.49,808.02 L 427.52,809.72 L 427.59,813.01 L 427.63,814.49 L 427.70,817.32 L 427.74,818.54 L 427.82,820.86 L 427.86,821.81 L 427.95,823.58 L 427.99,824.25 L 428.08,825.43 L 428.13,825.78 L 428.22,826.32 L 428.27,826.34 L 428.36,826.37 L 425.88,826.37 L 424.52,826.37 L 421.25,826.34 L 419.55,826.32 L 415.85,826.24 L 414.18,826.21 L 411.43,826.14 L 410.15,826.10 L 408.07,826.03 L 407.10,825.98 L 405.58,825.87 L 404.88,825.81 L 403.81,825.65 L 403.32,825.56 L 402.59,825.32 L 402.25,825.20 L 401.75,824.87 L 400.56,823.45 L 400.14,822.80 L 399.63,821.54 L 399.43,820.87 L 399.39,819.06 L 399.41,818.54 L 399.54,817.29 L 399.63,816.63 L 399.88,815.03 L 400.03,814.17 L 400.42,812.14 L 401.14,808.50 L 401.70,805.78 L 403.25,800.20 L 404.09,797.41 L 406.12,791.91 L 407.18,789.19 L 409.57,784.06 L 413.43,777.12 L 413.90,776.37 L 414.76,775.22 L 415.18,774.69 L 415.99,773.94 L 416.39,773.61 L 417.19,773.22 L 418.45,773.00 L 419.25,773.00 L 420.40,772.70 L 420.92,772.46 L 421.70,771.36 L 421.88,771.01 L 422.22,770.10 L 422.38,769.60 L 422.70,768.34 L 422.87,767.66 L 423.20,766.00 L 423.76,763.00 L 424.07,761.25 L 424.60,757.33 L 424.85,755.27 L 425.29,750.46 L 425.39,749.19 L 425.58,746.42 L 425.67,745.00 L 425.83,741.90 L 425.91,740.30 L 426.06,736.82 L 426.13,735.03 L 426.25,731.13 L 426.32,729.13 L 426.42,724.77 L 426.47,722.52 L 426.56,717.66 L 426.61,715.16 L 426.68,709.76 L 426.72,706.98 L 426.78,700.99 L 426.81,697.91 L 426.85,691.29 L 426.88,687.89 L 426.91,680.60 L 426.93,676.86 L 426.95,668.86 L 426.98,656.00 L 426.99,651.63 L 427.01,643.43 L 427.02,639.41 L 427.06,631.87 L 427.08,628.19 L 427.13,621.32 L 427.16,617.96 L 427.23,611.71 L 427.26,608.67 L 427.35,603.04 L 427.39,600.29 L 427.49,595.25 L 427.54,592.80 L 427.66,588.32 L 427.72,586.15 L 427.86,582.22 L 427.93,580.32 L 428.09,576.91 L 428.17,575.26 L 428.35,572.35 L 428.44,570.96 L 428.63,568.53 L 428.74,567.37 L 428.96,565.39 L 429.07,564.46 L 429.31,562.91 L 429.44,562.19 L 429.71,561.06 L 429.84,560.54 L 430.13,559.80 L 430.60,559.10 L 430.66,559.04 L 431.30,558.91 L 431.70,558.84 L 432.96,558.69 L 433.66,558.61 L 435.47,558.44 L 436.44,558.35 L 438.73,558.17 L 439.92,558.08 L 442.61,557.90 L 444.00,557.80 L 447.03,557.62 L 457.00,557.08 L 460.51,556.92 L 467.68,556.54 L 471.23,556.35 L 477.90,555.95 L 479.51,555.86 L 482.48,555.67 L 483.93,555.57 L 486.52,555.40 L 487.75,555.31 L 489.86,555.15 L 492.36,554.94 L 493.27,554.85 L 495.33,554.70 L 496.39,554.62 L 498.70,554.49 L 501.08,554.37 L 506.47,554.20 L 509.25,554.13 L 515.25,554.06 L 518.29,554.03 L 524.60,554.06 L 527.77,554.08 L 534.13,554.20 L 537.28,554.27 L 543.40,554.49 L 546.40,554.60 L 551.99,554.91 L 559.50,555.46 L 563.90,555.86 L 573.42,556.49 L 575.68,556.62 L 579.69,556.80 L 580.63,556.84 L 582.30,556.89 L 584.42,556.92 L 585.64,556.92 L 587.95,557.00 L 589.06,557.04 L 590.98,557.19 L 591.87,557.28 L 593.18,557.48 L 594.23,557.83 L 594.54,558.14 L 595.07,559.45 L 595.20,559.85 L 595.43,560.89 L 595.54,561.45 L 595.75,562.86 L 595.85,563.61 L 596.04,565.43 L 596.13,566.40 L 596.30,568.70 L 596.38,569.91 L 596.54,572.73 L 596.61,574.21 L 596.75,577.61 L 596.81,579.38 L 596.94,583.41 L 597.00,585.50 L 597.11,590.21 L 597.16,592.65 L 597.27,598.09 L 597.32,600.91 L 597.41,607.14 L 597.46,610.36 L 597.55,617.42 L 597.59,621.07 L 597.68,629.02 L 597.72,633.12 L 597.81,642.02 L 597.93,656.50 L 597.96,659.45 L 598.01,665.08 L 598.03,667.86 L 598.08,673.14 L 598.10,675.74 L 598.15,680.69 L 598.17,683.12 L 598.21,687.75 L 598.24,690.02 L 598.28,694.33 L 598.30,696.45 L 598.35,700.46 L 598.38,702.43 L 598.42,706.16 L 598.45,707.98 L 598.50,711.43 L 598.56,714.81 L 598.67,720.80 L 598.74,723.67 L 598.88,728.71 L 598.95,731.12 L 599.12,735.32 L 599.21,737.31 L 599.42,740.75 L 599.52,742.39 L 599.77,745.17 L 599.90,746.49 L 600.19,748.71 L 600.35,749.76 L 600.70,751.53 L 600.88,752.36 L 601.29,753.75 L 601.71,755.08 L 602.77,757.04 L 604.72,759.72 L 605.49,760.68 L 607.12,762.83 L 607.51,763.35 L 608.20,764.29 L 609.00,765.43 L 609.41,766.05 L 610.58,767.52 L 612.26,769.41 L 612.87,770.03 L 613.38,771.13 L 613.10,772.79 L 612.92,773.11 L 612.79,773.67 L 612.77,773.94 L 612.99,774.46 L 613.14,774.72 L 613.73,775.27 L 615.09,776.20 L 615.89,776.69 L 617.15,777.84 L 617.41,778.11 L 617.77,778.63 L 618.00,779.28 L 618.00,779.46 L 618.34,780.46 L 618.56,781.04 L 619.27,782.69 L 619.66,783.57 L 620.64,785.66 L 622.32,789.05 L 623.51,791.37 L 625.75,796.49 L 626.26,797.70 L 627.09,799.89 L 627.93,802.50 L 628.29,803.88 L 629.25,807.21 L 629.49,808.02 L 629.96,809.55 L 630.60,811.50 L 630.79,812.05 L 631.18,813.47 L 631.36,814.21 L 631.71,815.87 L 632.43,820.75 L 632.86,826.00 L 598.09,826.00 L 597.74,732.25 M 512.33,826.01 L 505.79,826.01 L 493.44,826.02 L 490.43,826.02 L 484.62,826.03 L 481.76,826.04 L 479.24,826.04 L 480.31,826.04 L 482.81,826.03 L 493.03,826.01 L 498.43,826.01 L 509.42,826.00 L 525.61,826.00 Z" fill="rgba(122,38,41,1)"></path>
<path d="M 428.21,826.16 L 429.04,826.53 L 429.28,826.56 L 429.07,826.56 L 428.27,826.34 L 428.22,826.32 L 428.19,826.14 M 598.09,826.00 L 598.00,826.00 L 597.96,791.57 M 521.38,192.18 L 528.54,192.39 L 542.85,193.53 L 550.00,194.22 L 564.28,196.32 L 571.41,197.49 L 585.64,200.54 L 606.92,206.19 L 612.18,207.77 L 622.56,211.35 L 627.72,213.20 L 637.87,217.32 L 642.92,219.45 L 652.83,224.10 L 657.75,226.49 L 667.40,231.64 L 672.19,234.28 L 681.56,239.94 L 686.21,242.82 L 695.28,248.95 L 699.78,252.07 L 708.54,258.66 L 712.87,262.02 L 721.29,269.05 L 725.46,272.63 L 733.52,280.09 L 737.50,283.88 L 745.19,291.75 L 748.99,295.74 L 756.29,304.02 L 759.88,308.20 L 766.77,316.86 L 770.15,321.23 L 776.61,330.25 L 779.78,334.81 L 785.78,344.17 L 788.72,348.90 L 794.26,358.60 L 802.01,373.50 L 804.82,379.27 L 809.89,390.73 L 812.34,396.46 L 816.69,407.92 L 818.78,413.66 L 822.44,425.23 L 824.19,431.05 L 827.19,442.86 L 828.61,448.80 L 830.98,460.97 L 832.08,467.11 L 833.84,479.74 L 834.65,486.13 L 835.84,499.36 L 837.00,520.00 L 837.03,520.90 L 837.09,523.41 L 837.12,524.77 L 837.18,528.15 L 837.21,529.94 L 837.27,534.13 L 837.29,536.32 L 837.35,541.26 L 837.38,543.82 L 837.43,549.45 L 837.45,552.34 L 837.50,558.59 L 837.52,561.79 L 837.57,568.60 L 837.59,572.07 L 837.63,579.38 L 837.65,583.09 L 837.69,590.84 L 837.71,594.76 L 837.74,602.88 L 837.76,606.98 L 837.79,615.40 L 837.81,619.65 L 837.83,628.32 L 837.86,637.05 L 837.90,654.97 L 837.92,663.97 L 837.95,682.07 L 837.96,691.09 L 837.97,708.85 L 837.98,717.65 L 837.97,734.58 L 837.97,738.73 L 837.96,746.80 L 837.96,750.79 L 837.95,758.49 L 837.94,762.28 L 837.92,769.52 L 837.91,773.09 L 837.89,779.82 L 837.88,783.13 L 837.86,789.30 L 837.84,792.30 L 837.81,797.84 L 837.80,800.53 L 837.76,805.37 L 837.74,807.70 L 837.70,811.78 L 837.68,813.72 L 837.64,816.99 L 837.61,818.51 L 837.56,820.89 L 837.54,821.97 L 837.48,823.40 L 837.46,823.62 L 837.49,822.94 L 837.51,822.29 L 837.55,820.86 L 837.57,819.95 L 837.60,817.98 L 837.62,816.81 L 837.65,814.34 L 837.67,812.92 L 837.70,809.98 L 837.71,808.34 L 837.74,804.95 L 837.76,803.10 L 837.78,799.30 L 837.79,797.25 L 837.81,793.07 L 837.82,790.85 L 837.84,786.31 L 837.85,783.93 L 837.87,779.07 L 837.87,776.53 L 837.89,771.39 L 837.89,768.72 L 837.91,757.79 L 837.91,752.01 L 837.91,740.26 L 837.90,734.17 L 837.86,716.43 L 837.82,705.23 L 837.80,700.02 L 837.77,694.88 L 837.76,692.42 L 837.72,687.58 L 837.71,685.28 L 837.67,680.77 L 837.65,678.65 L 837.62,674.50 L 837.60,672.57 L 837.55,668.81 L 837.53,667.09 L 837.49,663.75 L 837.47,662.24 L 837.42,659.35 L 837.40,658.08 L 837.35,655.66 L 837.32,654.64 L 837.27,652.72 L 837.25,651.97 L 837.19,650.59 L 837.17,650.11 L 837.12,649.29 L 837.09,649.10 L 837.03,648.88 L 837.01,649.00 L 836.84,650.21 L 836.72,651.47 L 836.66,652.30 L 836.54,654.10 L 836.48,655.17 L 836.37,657.43 L 836.31,658.70 L 836.20,661.34 L 836.14,662.77 L 836.04,665.71 L 835.99,667.27 L 835.81,673.72 L 835.74,677.10 L 835.62,682.57 L 835.52,685.95 L 835.47,687.51 L 835.35,690.52 L 835.29,691.87 L 835.17,694.48 L 835.10,695.62 L 834.96,697.80 L 834.88,698.72 L 834.73,700.43 L 834.66,701.11 L 834.50,702.33 L 834.42,702.75 L 834.25,703.45 L 834.16,703.60 L 833.55,704.60 L 833.29,704.92 L 833.22,704.90 L 833.10,704.74 L 833.07,704.47 L 833.04,703.81 L 833.03,703.28 L 832.67,701.77 L 832.11,701.41 L 831.69,701.57 L 830.91,701.57 L 830.18,701.40 L 829.74,701.23 L 827.86,700.36 L 826.91,699.71 L 824.14,698.15 L 823.35,697.84 L 823.04,697.76 L 822.50,697.67 L 822.35,697.72 L 821.68,697.32 L 821.58,696.40 L 821.72,695.67 L 821.59,693.08 L 821.06,691.08 L 820.63,690.26 L 819.74,687.93 L 819.63,687.29 L 819.64,687.06 L 819.69,686.64 L 819.79,686.54 L 820.00,686.11 L 819.77,686.01 L 819.50,686.08 L 818.26,686.01 L 817.18,685.74 L 816.69,685.53 L 815.57,685.27 L 814.52,685.17 L 813.88,685.15 L 811.11,685.18 L 809.69,685.35 L 804.50,685.97 L 796.98,678.10 L 793.95,674.82 L 792.05,672.68 L 791.24,671.70 L 789.71,669.84 L 789.16,669.10 L 788.19,667.76 L 787.99,667.37 L 786.50,664.90 L 785.42,663.40 L 785.01,662.98 L 782.06,659.83 L 780.60,658.06 L 780.10,657.30 L 779.23,655.84 L 778.99,655.18 L 778.63,653.89 L 778.60,653.26 L 777.82,650.54 L 776.76,648.65 L 776.10,647.97 L 775.23,647.12 L 774.79,646.74 L 774.64,646.64 L 774.41,646.51 L 774.38,646.55 L 774.40,646.71 L 774.51,646.90 L 774.82,647.77 L 774.58,647.86 L 774.24,647.65 L 773.57,646.48 L 773.37,645.25 L 773.44,644.58 L 773.32,642.91 L 773.13,642.65 L 772.99,642.60 L 772.68,642.57 L 772.48,642.65 L 771.14,642.48 L 770.12,641.90 L 769.66,641.48 L 768.83,640.60 L 768.61,640.15 L 768.32,639.29 L 768.51,638.99 L 768.25,638.19 L 767.48,637.65 L 766.89,637.46 L 765.67,636.77 L 764.56,635.94 L 763.91,635.39 L 761.05,632.86 L 759.58,631.42 L 758.13,629.96 L 757.47,629.27 L 756.21,627.90 L 755.69,627.29 L 754.75,626.16 L 754.46,625.72 L 754.00,624.96 L 754.00,624.77 L 753.64,624.05 L 753.09,623.28 L 752.68,622.79 L 751.79,621.75 L 751.25,621.16 L 750.12,619.96 L 749.50,619.34 L 747.75,617.48 L 746.73,616.27 L 746.32,615.73 L 745.58,614.70 L 745.36,614.29 L 745.00,613.57 L 745.00,613.36 L 744.68,612.50 L 744.18,612.39 L 743.85,612.60 L 743.19,612.81 L 743.21,612.48 L 743.45,612.09 L 744.42,611.39 L 745.28,611.28 L 745.69,611.44 L 747.02,611.64 L 747.85,611.52 L 748.15,611.37 L 748.66,611.03 L 748.71,610.81 L 748.66,610.35 L 748.34,610.12 L 747.82,609.52 L 747.33,608.80 L 747.04,608.32 L 745.78,606.13 L 745.13,604.85 L 742.51,600.95 L 741.50,599.89 L 740.98,599.46 L 739.93,598.66 L 739.39,598.37 L 737.00,596.88 L 736.44,596.44 L 736.27,596.26 L 736.00,595.94 L 736.00,595.84 L 735.61,594.96 L 735.05,594.18 L 734.68,593.82 L 733.92,592.96 L 733.23,592.11 L 732.82,591.60 L 731.06,589.31 L 730.18,588.10 L 729.20,586.75 L 728.66,586.03 L 728.44,585.75 L 727.69,584.88 L 727.48,584.76 L 727.15,584.72 L 727.08,584.98 L 727.00,585.69 L 727.00,586.29 L 727.29,588.30 L 727.72,589.33 L 727.99,589.50 L 729.04,590.58 L 729.82,591.70 L 730.14,592.31 L 731.29,594.50 L 728.97,592.50 L 728.13,591.82 L 727.70,591.52 L 727.55,591.45 L 727.32,591.37 L 727.29,591.42 L 727.29,591.58 L 727.39,591.75 L 727.77,592.55 L 727.83,592.89 L 727.77,592.97 L 727.60,593.08 L 727.43,593.04 L 727.05,592.91 L 726.79,592.77 L 725.57,591.98 L 724.75,591.30 L 722.98,589.76 L 721.96,588.75 L 718.55,584.66 L 716.48,581.52 L 715.64,579.92 L 714.10,576.73 L 713.62,575.28 L 713.20,573.87 L 713.08,573.24 L 712.89,572.02 L 712.90,571.50 L 713.10,570.00 L 713.39,568.55 L 713.56,567.81 L 713.60,566.37 L 713.41,565.13 L 713.23,564.42 L 712.29,561.35 L 711.61,559.78 L 710.17,556.71 L 709.42,555.53 L 708.67,554.45 L 708.32,554.06 L 707.63,553.41 L 707.34,553.30 L 706.39,552.37 L 706.00,551.40 L 706.00,550.87 L 705.21,549.21 L 704.08,548.25 L 703.40,547.93 L 702.00,547.41 L 701.38,547.41 L 700.79,547.45 L 700.55,547.55 L 700.12,547.81 L 699.98,548.04 L 699.02,548.44 L 698.59,548.26 L 698.34,548.08 L 697.80,547.66 L 697.50,547.36 L 696.50,546.42 L 696.11,546.17 L 696.02,546.26 L 695.92,546.59 L 695.95,547.00 L 696.07,547.99 L 696.18,548.76 L 696.21,551.11 L 696.09,551.70 L 695.99,551.91 L 695.77,552.24 L 695.63,552.29 L 695.40,552.94 L 695.25,553.94 L 695.18,554.71 L 695.04,556.44 L 694.98,557.57 L 694.85,560.01 L 694.80,561.48 L 694.69,564.61 L 694.64,566.42 L 694.54,570.21 L 694.50,572.35 L 694.41,576.79 L 694.38,579.24 L 694.31,584.30 L 694.29,587.06 L 694.11,600.71 L 694.04,604.92 L 694.00,606.88 L 693.92,610.69 L 693.88,612.41 L 693.79,615.72 L 693.75,617.14 L 693.66,619.84 L 693.61,620.92 L 693.52,622.91 L 693.48,623.59 L 693.39,624.76 L 693.35,625.00 L 693.29,625.87 L 693.24,626.94 L 693.22,627.72 L 693.17,629.42 L 693.15,630.50 L 693.10,632.79 L 693.07,634.15 L 693.02,637.00 L 692.99,638.63 L 692.94,642.01 L 692.91,643.88 L 692.86,647.74 L 692.83,649.85 L 692.77,654.16 L 692.75,656.48 L 692.69,661.22 L 692.66,663.73 L 692.61,668.85 L 692.58,671.54 L 692.52,677.00 L 692.50,679.86 L 692.44,685.64 L 692.42,688.63 L 692.31,700.88 L 692.26,707.34 L 692.17,720.46 L 692.13,727.25 L 691.50,826.00 L 691.50,826.00 L 691.48,684.25 L 691.48,679.44 L 691.47,670.27 L 691.47,665.76 L 691.47,657.18 L 691.47,652.96 L 691.47,644.93 L 691.46,640.98 L 691.46,633.49 L 691.46,629.81 L 691.45,622.84 L 691.44,619.41 L 691.43,612.93 L 691.43,609.75 L 691.41,603.74 L 691.40,600.79 L 691.38,595.22 L 691.37,592.50 L 691.35,587.36 L 691.33,584.85 L 691.30,580.11 L 691.28,577.80 L 691.24,573.45 L 691.22,571.32 L 691.18,567.34 L 691.15,565.39 L 691.10,561.74 L 691.07,559.95 L 691.01,556.62 L 690.97,555.00 L 690.90,551.96 L 690.86,550.48 L 690.78,547.72 L 690.69,545.02 L 690.48,540.35 L 690.37,538.12 L 690.11,534.26 L 689.97,532.41 L 689.66,529.18 L 689.49,527.62 L 689.11,524.84 L 688.72,522.15 L 687.72,517.37 L 687.45,516.17 L 686.85,513.71 L 685.85,509.73 L 685.07,506.61 L 683.23,500.45 L 682.28,497.38 L 680.11,491.34 L 678.98,488.34 L 676.49,482.43 L 675.20,479.50 L 672.39,473.74 L 670.94,470.88 L 667.83,465.28 L 666.23,462.50 L 662.82,457.08 L 661.08,454.39 L 657.38,449.14 L 655.49,446.55 L 651.52,441.51 L 649.50,439.01 L 645.26,434.18 L 643.11,431.79 L 638.61,427.18 L 636.34,424.90 L 631.60,420.53 L 629.20,418.37 L 624.23,414.25 L 621.71,412.22 L 616.52,408.36 L 613.89,406.46 L 608.48,402.87 L 605.75,401.11 L 600.14,397.81 L 591.50,393.19 L 588.50,391.69 L 582.35,388.97 L 579.25,387.66 L 572.93,385.32 L 569.75,384.20 L 563.27,382.23 L 560.02,381.30 L 553.42,379.71 L 551.19,379.21 L 555.21,380.00 L 559.88,381.23 L 569.09,383.91 L 573.50,385.53 L 581.32,388.39 L 583.79,389.28 L 584.85,389.65 L 586.81,390.35 L 587.50,390.59 L 590.15,391.52 L 591.68,392.07 L 592.33,392.32 L 594.69,393.26 L 595.54,393.66 L 597.06,394.44 L 597.61,394.83 L 598.59,395.60 L 599.00,396.04 L 600.05,396.84 L 601.12,397.48 L 601.78,397.83 L 604.76,399.25 L 606.37,399.84 L 611.38,402.11 L 612.93,402.97 L 613.58,403.37 L 614.79,404.17 L 615.20,404.51 L 617.94,406.27 L 618.86,406.68 L 619.28,406.80 L 620.07,407.00 L 620.38,407.00 L 622.34,407.37 L 623.56,407.91 L 623.92,408.25 L 624.54,408.80 L 624.76,408.93 L 624.78,408.88 L 624.75,408.68 L 624.64,408.46 L 624.37,407.91 L 624.14,407.50 L 622.73,405.20 L 621.81,403.94 L 621.37,403.47 L 620.51,402.63 L 620.13,402.38 L 619.38,402.00 L 619.07,402.00 L 617.74,401.60 L 616.82,400.93 L 616.33,400.37 L 615.33,399.10 L 614.79,398.23 L 613.67,396.32 L 613.05,395.10 L 611.59,392.76 L 610.24,390.95 L 609.43,389.98 L 605.89,385.94 L 603.94,384.00 L 601.98,382.09 L 601.03,381.23 L 599.15,379.58 L 598.30,378.89 L 596.65,377.64 L 595.97,377.21 L 594.69,376.49 L 594.25,376.38 L 591.76,375.47 L 590.32,374.64 L 589.77,374.16 L 588.81,373.19 L 588.57,372.70 L 588.27,371.74 L 588.43,371.32 L 588.26,370.46 L 587.81,369.62 L 587.44,369.10 L 586.61,368.01 L 586.09,367.42 L 584.97,366.21 L 584.34,365.61 L 582.61,363.82 L 581.64,362.70 L 581.28,362.21 L 580.65,361.29 L 580.49,360.95 L 580.28,360.35 L 580.37,360.22 L 580.23,359.56 L 579.80,358.89 L 579.45,358.48 L 577.74,356.67 L 576.65,355.71 L 574.39,353.82 L 573.37,353.13 L 572.40,352.51 L 572.00,352.31 L 571.27,352.00 L 571.03,352.00 L 570.45,351.68 L 569.97,351.19 L 569.71,350.83 L 568.61,349.10 L 568.11,348.00 L 567.37,346.51 L 566.88,345.68 L 566.66,345.38 L 566.23,344.85 L 566.06,344.73 L 565.75,344.58 L 565.66,344.67 L 565.19,344.67 L 565.00,344.17 L 565.00,343.73 L 564.66,342.38 L 564.16,341.60 L 563.85,341.40 L 563.19,341.19 L 563.18,341.48 L 563.40,341.83 L 563.71,342.49 L 563.70,342.74 L 563.62,342.77 L 563.06,342.68 L 562.59,342.39 L 561.54,341.64 L 560.99,341.12 L 559.92,339.99 L 559.52,339.39 L 557.69,336.87 L 556.18,334.97 L 555.52,334.22 L 551.74,329.92 L 549.56,327.43 L 548.62,326.35 L 546.84,324.29 L 546.08,323.40 L 544.64,321.71 L 544.03,320.98 L 542.88,319.59 L 542.40,318.98 L 541.48,317.82 L 541.09,317.31 L 539.69,315.41 L 539.12,314.55 L 536.34,310.76 L 534.41,308.49 L 533.51,307.57 L 531.78,305.92 L 531.09,305.44 L 530.44,305.02 L 530.17,304.92 L 529.69,304.78 L 529.53,304.83 L 529.00,304.87 L 528.99,304.68 L 529.18,304.49 L 529.35,303.97 L 529.29,303.46 L 529.17,303.13 L 528.51,301.64 L 527.89,300.67 L 526.48,298.60 L 525.54,297.43 L 523.51,295.00 L 522.32,293.72 L 519.37,290.41 L 518.64,289.50 L 518.38,289.16 L 517.97,288.57 L 517.91,288.43 L 517.26,287.09 L 516.67,286.04 L 516.30,285.47 L 514.70,283.07 L 513.79,281.86 L 511.94,279.49 L 511.09,278.54 L 510.26,277.64 L 509.89,277.29 L 509.19,276.65 L 508.91,276.46 L 507.68,275.41 L 506.73,274.44 L 506.23,273.86 L 504.22,271.36 L 503.42,270.10 L 502.00,268.02 L 500.88,266.51 L 500.27,265.76 L 499.05,264.27 L 498.45,263.59 L 497.28,262.30 L 496.76,261.79 L 494.11,258.83 L 493.49,258.00 L 493.30,257.67 L 493.00,257.09 L 493.00,256.93 L 492.50,255.66 L 491.71,254.48 L 491.11,253.75 L 489.78,252.22 L 488.94,251.36 L 487.17,249.59 L 486.15,248.65 L 484.07,246.32 L 482.76,244.48 L 482.36,243.72 L 481.06,241.93 L 480.63,241.59 L 480.44,241.52 L 480.09,241.44 L 479.96,241.53 L 479.28,241.64 L 479.00,241.36 L 479.00,241.08 L 478.72,240.17 L 478.28,239.25 L 477.96,238.67 L 476.46,236.09 L 475.53,234.65 L 473.61,231.77 L 472.73,230.59 L 471.87,229.46 L 471.50,229.03 L 470.81,228.26 L 470.56,228.05 L 469.53,226.71 L 469.26,225.77 L 469.39,225.43 L 469.08,224.38 L 468.28,223.76 L 467.68,223.60 L 466.41,222.98 L 465.25,222.23 L 464.57,221.72 L 461.62,219.39 L 460.14,218.01 L 457.97,216.06 L 456.61,214.91 L 456.03,214.45 L 454.92,213.61 L 454.51,213.35 L 453.80,212.93 L 453.64,212.92 L 452.40,212.76 L 451.41,212.58 L 451.00,212.48 L 447.79,211.75 L 446.18,211.46 L 445.62,211.41 L 444.65,211.38 L 444.39,211.46 L 444.00,211.69 L 444.00,211.89 L 443.49,212.45 L 442.73,212.58 L 442.25,212.49 L 440.77,212.23 L 439.90,212.10 L 439.68,212.08 L 439.10,211.47 L 439.09,210.68 L 439.22,210.23 L 439.56,209.34 L 439.83,209.00 L 440.42,208.41 L 440.76,208.38 L 442.14,208.25 L 443.23,208.16 L 443.70,208.12 L 444.74,207.78 L 444.72,207.32 L 444.35,206.95 L 442.94,206.43 L 441.63,206.67 L 440.73,207.08 L 437.87,207.73 L 435.63,207.78 L 434.58,207.58 L 431.87,207.15 L 431.16,207.06 L 430.90,207.04 L 430.46,207.02 L 430.37,207.04 L 429.48,206.75 L 429.02,206.17 L 428.90,205.80 L 428.73,205.01 L 428.79,204.65 L 429.01,203.98 L 429.30,203.79 L 429.65,203.47 L 429.68,203.29 L 429.59,203.23 L 429.34,203.11 L 429.12,203.07 L 428.60,203.02 L 428.42,203.02 L 430.76,202.38 L 435.75,201.12 L 442.84,199.42 L 457.07,196.73 L 464.19,195.50 L 478.47,193.78 L 485.61,193.03 L 499.91,192.26 L 507.07,191.99 M 837.32,824.60 L 836.77,824.89 L 836.58,824.96 L 836.03,825.09 L 836.58,824.96 L 836.77,824.89 L 837.32,824.60 M 543.16,627.94 L 547.64,627.95 L 556.09,627.98 L 560.21,628.00 L 567.72,628.07 L 569.53,628.09 L 572.92,628.14 L 574.58,628.16 L 577.64,628.22 L 579.13,628.24 L 581.83,628.31 L 583.13,628.34 L 585.43,628.42 L 586.53,628.45 L 588.39,628.54 L 589.27,628.58 L 590.66,628.68 L 591.30,628.72 L 592.19,628.83 L 592.93,629.00 L 593.13,629.11 L 593.61,629.65 L 593.85,629.96 L 594.39,630.83 L 595.88,634.14 L 596.04,634.61 L 596.32,636.13 L 596.39,636.57 L 596.51,637.68 L 596.57,638.27 L 596.68,639.72 L 596.73,640.49 L 596.83,642.32 L 596.88,643.29 L 596.96,645.58 L 597.01,646.78 L 597.08,649.57 L 597.12,651.03 L 597.19,654.37 L 597.22,656.12 L 597.28,660.08 L 597.31,662.14 L 597.37,666.77 L 597.39,669.18 L 597.44,674.53 L 597.47,677.31 L 597.51,683.44 L 597.53,686.61 L 597.57,693.58 L 597.59,697.18 L 597.63,705.04 L 597.65,709.09 L 597.69,717.91 L 597.74,732.25 L 597.76,735.92 L 597.73,733.82 L 597.70,731.82 L 597.64,727.96 L 597.60,726.20 L 597.52,722.81 L 597.47,721.27 L 597.37,718.31 L 597.32,716.99 L 597.20,714.43 L 597.14,713.29 L 597.00,711.10 L 596.93,710.14 L 596.77,708.28 L 596.68,707.46 L 596.50,705.90 L 596.41,705.22 L 595.99,702.74 L 595.74,701.81 L 595.21,700.13 L 594.90,699.49 L 593.69,697.64 L 593.14,697.23 L 592.77,697.08 L 591.94,696.81 L 591.38,696.72 L 590.15,696.57 L 589.35,696.54 L 587.59,696.49 L 586.48,696.50 L 584.08,696.54 L 582.59,696.58 L 579.42,696.68 L 577.50,696.74 L 576.78,696.75 L 576.00,696.76 L 575.46,696.76 L 574.30,696.76 L 573.59,696.76 L 572.07,696.76 L 571.19,696.75 L 569.33,696.75 L 568.29,696.74 L 566.12,696.74 L 564.93,696.73 L 562.47,696.72 L 561.14,696.71 L 558.41,696.70 L 556.95,696.69 L 550.88,696.65 L 547.52,696.63 L 540.61,696.58 L 536.90,696.56 L 529.33,696.50 L 525.36,696.47 L 517.30,696.40 L 513.15,696.37 L 503.69,696.29 L 497.89,696.25 L 495.23,696.23 L 490.08,696.19 L 487.73,696.18 L 483.18,696.16 L 481.11,696.15 L 477.13,696.14 L 475.33,696.14 L 471.86,696.14 L 470.31,696.14 L 467.32,696.15 L 466.00,696.17 L 463.45,696.19 L 462.33,696.21 L 460.19,696.25 L 459.25,696.28 L 457.46,696.33 L 456.69,696.37 L 455.22,696.44 L 454.59,696.48 L 453.40,696.57 L 452.89,696.62 L 451.10,696.83 L 450.46,696.97 L 449.32,697.26 L 448.88,697.43 L 445.41,698.54 L 444.28,698.80 L 443.80,698.88 L 442.88,699.00 L 442.55,699.00 L 440.42,699.43 L 439.09,700.05 L 438.69,700.45 L 436.83,701.58 L 435.16,702.17 L 434.37,702.27 L 432.82,702.65 L 432.01,703.13 L 431.66,703.54 L 430.99,704.51 L 430.65,705.24 L 429.95,706.91 L 429.53,708.07 L 428.91,710.01 L 428.57,711.46 L 428.43,712.40 L 428.17,714.45 L 428.06,715.83 L 427.96,717.28 L 427.92,718.12 L 427.83,719.88 L 427.80,720.89 L 427.72,723.01 L 427.69,724.23 L 427.63,726.75 L 427.60,728.19 L 427.55,731.18 L 427.53,732.86 L 427.48,736.36 L 427.46,738.31 L 427.42,742.37 L 427.40,744.62 L 427.36,749.28 L 427.35,751.86 L 427.31,757.17 L 427.29,760.10 L 427.26,766.12 L 427.24,769.42 L 427.20,777.43 L 427.18,782.39 L 427.17,783.23 L 427.14,779.96 L 427.07,769.63 L 427.04,764.38 L 426.99,753.40 L 426.97,747.87 L 426.94,736.58 L 426.94,730.93 L 426.94,719.67 L 426.94,714.07 L 426.97,703.17 L 426.98,697.80 L 427.04,687.60 L 427.05,685.10 L 427.08,680.31 L 427.10,677.94 L 427.14,673.44 L 427.16,671.22 L 427.21,667.05 L 427.24,665.01 L 427.29,661.21 L 427.32,659.35 L 427.38,655.97 L 427.41,654.33 L 427.48,651.40 L 427.51,650.00 L 427.59,647.57 L 427.63,646.42 L 427.71,644.53 L 427.75,643.65 L 427.84,642.35 L 427.98,641.09 L 428.33,639.25 L 429.10,636.35 L 429.51,635.02 L 430.44,633.05 L 430.94,632.16 L 432.12,630.97 L 434.27,629.90 L 434.50,629.84 L 435.36,629.72 L 435.85,629.66 L 437.22,629.55 L 437.96,629.49 L 439.80,629.38 L 440.78,629.33 L 443.05,629.22 L 444.24,629.17 L 446.91,629.07 L 448.30,629.02 L 451.34,628.93 L 452.90,628.88 L 456.28,628.80 L 458.00,628.75 L 461.67,628.67 L 465.41,628.59 L 473.63,628.45 L 477.84,628.38 L 486.79,628.26 L 491.33,628.21 L 500.74,628.12 L 505.48,628.07 L 515.06,628.01 L 519.85,627.99 L 529.34,627.95 L 534.05,627.94 M 190.23,477.23 L 190.40,475.96 L 190.71,474.09 M 192.83,461.44 L 192.92,460.91 L 192.99,460.57 M 413.88,404.43 L 413.98,404.36 L 414.29,404.16 M 442.48,389.24 L 433.11,393.49 L 430.68,394.68 L 426.03,397.14 L 423.74,398.39 L 420.48,400.30 L 423.12,398.68 L 426.27,396.96 L 432.63,393.62 L 435.92,392.09 L 442.57,389.13 L 446.02,387.78 L 447.31,387.30 M 213.31,392.31 L 214.21,390.10 L 215.80,386.54 M 452.10,385.55 L 450.69,386.04 L 453.01,385.18 L 456.64,383.99 L 457.26,383.82 M 253.81,321.74 L 248.76,328.67 L 246.35,332.16 L 241.61,339.17 L 239.36,342.72 L 234.92,349.82 L 232.81,353.41 L 228.67,360.62 L 226.71,364.27 L 222.86,371.58 L 221.05,375.28 L 217.73,382.22 L 218.16,381.25 L 220.19,376.86 L 224.53,368.22 L 226.74,363.92 L 231.46,355.50 L 233.87,351.31 L 238.96,343.09 L 241.56,339.01 L 247.04,331.02 L 249.82,327.04 L 255.67,319.26 L 258.65,315.40 L 259.20,314.72 M 471.90,379.86 L 470.16,380.26 L 470.86,380.06 L 476.08,378.98 M 540.72,377.26 L 545.58,378.10 L 548.10,378.60 L 543.41,377.75 L 540.05,377.19 L 538.93,377.05 M 482.01,377.87 L 478.87,378.40 L 480.61,378.03 L 485.58,377.31 L 485.63,377.31 M 494.29,376.23 L 495.57,376.07 L 496.57,376.01 M 525.82,375.69 L 527.01,375.80 L 524.97,375.66 M 286.73,284.29 L 284.51,286.53 L 282.22,288.84 L 284.96,285.99 L 288.13,282.83 L 290.90,280.21 M 356.93,231.92 L 348.56,236.65 L 344.45,239.15 L 336.27,244.23 L 332.26,246.90 L 324.59,252.14 L 327.58,249.98 L 334.57,245.26 L 338.10,242.93 L 345.35,238.46 L 349.01,236.26 L 356.54,232.02 L 360.75,229.81 M 369.65,225.25 L 361.82,229.25 L 368.21,225.89 L 370.38,224.81 L 373.60,223.29 M 374.52,222.85 L 375.18,222.54 L 377.64,221.40 L 378.99,220.81 M 409.57,208.65 L 408.63,208.97 L 399.06,212.46 L 401.00,211.72 L 405.67,210.00 L 407.92,209.19 L 410.37,208.38 M 426.00,204.00 L 426.29,204.71 L 426.72,205.00 L 427.00,205.00 L 428.01,205.29 L 428.04,205.74 L 427.77,206.06 L 427.05,206.74 L 426.44,207.12 L 425.06,207.91 L 424.16,208.31 L 420.60,209.61 L 418.68,210.02 L 417.98,210.01 L 416.78,209.82 L 416.48,209.50 L 416.24,209.15 L 416.20,208.92 L 416.18,208.41 L 416.26,208.10 L 416.33,207.13 L 415.96,206.85 L 415.45,206.91 L 414.88,207.00 L 414.49,207.10 L 413.82,207.28 L 414.46,207.09 L 415.26,206.86 L 416.65,206.50 L 417.31,206.34 L 418.39,206.13 L 419.63,206.00 L 420.25,206.00 L 421.39,205.73 L 422.44,205.09 L 422.48,205.03 L 422.82,204.84 L 423.02,204.74 L 423.67,204.50 L 424.38,204.23 L 426.00,203.73 M 412.13,207.80 L 412.79,207.59 L 412.99,207.53 M 509.14,826.00 L 509.38,826.00 L 509.42,826.00 M 188.89,487.85 L 188.39,492.07 L 187.98,496.50 L 188.47,491.31 Z" fill="rgba(193,54,57,1)"></path>
<path d="M 586.46,809.59 L 582.51,804.67 L 580.35,802.36 L 575.91,797.82 L 573.53,795.72 L 568.67,791.62 L 566.11,789.75 L 560.90,786.14 L 558.19,784.54 L 552.72,781.48 L 549.90,780.17 L 544.23,777.71 L 541.34,776.73 L 535.55,774.92 L 532.63,774.28 L 528.73,773.62 L 525.73,773.27 L 524.09,773.14 L 517.20,772.77 L 513.56,772.77 L 506.26,772.90 L 502.88,773.15 L 499.58,773.44 L 498.08,773.63 L 495.18,774.04 L 493.93,774.29 L 485.38,776.50 L 479.78,778.40 L 477.04,779.55 L 471.61,781.99 L 468.99,783.40 L 463.81,786.34 L 461.33,787.99 L 456.45,791.39 L 454.15,793.25 L 449.63,797.07 L 447.53,799.13 L 443.43,803.33 L 441.56,805.56 L 437.94,810.11 L 436.33,812.50 L 433.24,817.27 L 431.56,820.05 L 430.94,821.22 L 429.82,823.38 L 429.50,824.19 L 429.00,825.64 L 429.00,826.06 L 429.16,826.55 L 429.04,826.53 L 428.21,826.16 L 428.08,826.08 L 427.86,825.37 L 427.76,824.91 L 427.59,823.31 L 427.55,822.85 L 427.48,821.72 L 427.45,821.13 L 427.39,819.72 L 427.36,818.98 L 427.31,817.27 L 427.28,816.37 L 427.25,814.33 L 427.23,813.27 L 427.20,810.88 L 427.18,809.64 L 427.16,806.87 L 427.16,805.44 L 427.15,802.29 L 427.14,800.66 L 427.14,797.08 L 427.14,795.24 L 427.15,791.23 L 427.15,789.16 L 427.17,784.68 L 427.18,782.39 L 427.20,777.43 L 427.24,769.42 L 427.26,766.12 L 427.29,760.10 L 427.31,757.17 L 427.35,751.86 L 427.36,749.28 L 427.40,744.62 L 427.42,742.37 L 427.46,738.31 L 427.48,736.36 L 427.53,732.86 L 427.55,731.18 L 427.60,728.19 L 427.63,726.75 L 427.69,724.23 L 427.72,723.01 L 427.80,720.89 L 427.83,719.88 L 427.92,718.12 L 427.96,717.28 L 428.06,715.83 L 428.17,714.45 L 428.43,712.40 L 428.57,711.46 L 428.91,710.01 L 429.53,708.07 L 429.95,706.91 L 430.65,705.24 L 430.99,704.51 L 431.66,703.54 L 432.01,703.13 L 432.82,702.65 L 434.37,702.27 L 435.16,702.17 L 436.83,701.58 L 438.69,700.45 L 439.09,700.05 L 440.42,699.43 L 442.55,699.00 L 442.88,699.00 L 443.80,698.88 L 444.28,698.80 L 445.41,698.54 L 448.88,697.43 L 449.32,697.26 L 450.46,696.97 L 451.10,696.83 L 452.89,696.62 L 453.40,696.57 L 454.59,696.48 L 455.22,696.44 L 456.69,696.37 L 457.46,696.33 L 459.25,696.28 L 460.19,696.25 L 462.33,696.21 L 463.45,696.19 L 466.00,696.17 L 467.32,696.15 L 470.31,696.14 L 471.86,696.14 L 475.33,696.14 L 477.13,696.14 L 481.11,696.15 L 483.18,696.16 L 487.73,696.18 L 490.08,696.19 L 495.23,696.23 L 497.89,696.25 L 503.69,696.29 L 513.15,696.37 L 517.30,696.40 L 525.36,696.47 L 529.33,696.50 L 536.90,696.56 L 540.61,696.58 L 547.52,696.63 L 550.88,696.65 L 556.95,696.69 L 558.41,696.70 L 561.14,696.71 L 562.47,696.72 L 564.93,696.73 L 566.12,696.74 L 568.29,696.74 L 569.33,696.75 L 571.19,696.75 L 572.07,696.76 L 573.59,696.76 L 574.30,696.76 L 575.46,696.76 L 576.00,696.76 L 576.78,696.75 L 577.50,696.74 L 579.42,696.68 L 582.59,696.58 L 584.08,696.54 L 586.48,696.50 L 587.59,696.49 L 589.35,696.54 L 590.15,696.57 L 591.38,696.72 L 591.94,696.81 L 592.77,697.08 L 593.14,697.23 L 593.69,697.64 L 594.90,699.49 L 595.21,700.13 L 595.74,701.81 L 595.99,702.74 L 596.41,705.22 L 596.50,705.90 L 596.68,707.46 L 596.77,708.28 L 596.93,710.14 L 597.00,711.10 L 597.14,713.29 L 597.20,714.43 L 597.32,716.99 L 597.37,718.31 L 597.47,721.27 L 597.52,722.81 L 597.60,726.20 L 597.64,727.96 L 597.70,731.82 L 597.73,733.82 L 597.78,738.20 L 597.81,740.45 L 597.84,745.37 L 597.86,747.91 L 597.89,753.41 L 597.90,756.23 L 597.92,762.35 L 597.94,772.25 L 598.00,826.00 L 596.99,826.00 L 591.74,817.34 M 696.50,546.42 L 697.50,547.36 L 697.80,547.66 L 698.34,548.08 L 698.59,548.26 L 699.02,548.44 L 699.98,548.04 L 700.12,547.81 L 700.55,547.55 L 700.79,547.45 L 701.38,547.41 L 702.00,547.41 L 703.40,547.93 L 704.08,548.25 L 705.21,549.21 L 706.00,550.87 L 706.00,551.40 L 706.39,552.37 L 707.34,553.30 L 707.63,553.41 L 708.32,554.06 L 708.67,554.45 L 709.42,555.53 L 710.17,556.71 L 711.61,559.78 L 712.29,561.35 L 713.23,564.42 L 713.41,565.13 L 713.60,566.37 L 713.56,567.81 L 713.39,568.55 L 713.10,570.00 L 712.90,571.50 L 712.89,572.02 L 713.08,573.24 L 713.20,573.87 L 713.62,575.28 L 714.10,576.73 L 715.64,579.92 L 716.48,581.52 L 718.55,584.66 L 721.96,588.75 L 722.98,589.76 L 724.75,591.30 L 725.57,591.98 L 726.79,592.77 L 727.05,592.91 L 727.43,593.04 L 727.60,593.08 L 727.77,592.97 L 727.83,592.89 L 727.77,592.55 L 727.39,591.75 L 727.29,591.58 L 727.29,591.42 L 727.32,591.37 L 727.55,591.45 L 727.70,591.52 L 728.13,591.82 L 728.97,592.50 L 731.29,594.50 L 730.14,592.31 L 729.82,591.70 L 729.04,590.58 L 727.99,589.50 L 727.72,589.33 L 727.29,588.30 L 727.00,586.29 L 727.00,585.69 L 727.08,584.98 L 727.15,584.72 L 727.48,584.76 L 727.69,584.88 L 728.44,585.75 L 728.66,586.03 L 729.20,586.75 L 730.18,588.10 L 731.06,589.31 L 732.82,591.60 L 733.23,592.11 L 733.92,592.96 L 734.68,593.82 L 735.05,594.18 L 735.61,594.96 L 736.00,595.84 L 736.00,595.94 L 736.27,596.26 L 736.44,596.44 L 737.00,596.88 L 739.39,598.37 L 739.93,598.66 L 740.98,599.46 L 741.50,599.89 L 742.51,600.95 L 745.13,604.85 L 745.78,606.13 L 747.04,608.32 L 747.33,608.80 L 747.82,609.52 L 748.34,610.12 L 748.66,610.35 L 748.71,610.81 L 748.66,611.03 L 748.15,611.37 L 747.85,611.52 L 747.02,611.64 L 745.69,611.44 L 745.28,611.28 L 744.42,611.39 L 743.45,612.09 L 743.21,612.48 L 743.19,612.81 L 743.85,612.60 L 744.18,612.39 L 744.68,612.50 L 745.00,613.36 L 745.00,613.57 L 745.36,614.29 L 745.58,614.70 L 746.32,615.73 L 746.73,616.27 L 747.75,617.48 L 749.50,619.34 L 750.12,619.96 L 751.25,621.16 L 751.79,621.75 L 752.68,622.79 L 753.09,623.28 L 753.64,624.05 L 754.00,624.77 L 754.00,624.96 L 754.46,625.72 L 754.75,626.16 L 755.69,627.29 L 756.21,627.90 L 757.47,629.27 L 758.13,629.96 L 759.58,631.42 L 761.05,632.86 L 763.91,635.39 L 764.56,635.94 L 765.67,636.77 L 766.89,637.46 L 767.48,637.65 L 768.25,638.19 L 768.51,638.99 L 768.32,639.29 L 768.61,640.15 L 768.83,640.60 L 769.66,641.48 L 770.12,641.90 L 771.14,642.48 L 772.48,642.65 L 772.68,642.57 L 772.99,642.60 L 773.13,642.65 L 773.32,642.91 L 773.44,644.58 L 773.37,645.25 L 773.57,646.48 L 774.24,647.65 L 774.58,647.86 L 774.82,647.77 L 774.51,646.90 L 774.40,646.71 L 774.38,646.55 L 774.41,646.51 L 774.64,646.64 L 774.79,646.74 L 775.23,647.12 L 776.10,647.97 L 776.76,648.65 L 777.82,650.54 L 778.60,653.26 L 778.63,653.89 L 778.99,655.18 L 779.23,655.84 L 780.10,657.30 L 780.60,658.06 L 782.06,659.83 L 785.01,662.98 L 785.42,663.40 L 786.50,664.90 L 787.99,667.37 L 788.19,667.76 L 789.16,669.10 L 789.71,669.84 L 791.24,671.70 L 792.05,672.68 L 793.95,674.82 L 796.98,678.10 L 804.50,685.97 L 809.69,685.35 L 811.11,685.18 L 813.88,685.15 L 814.52,685.17 L 815.57,685.27 L 816.69,685.53 L 817.18,685.74 L 818.26,686.01 L 819.50,686.08 L 819.77,686.01 L 820.00,686.11 L 819.79,686.54 L 819.69,686.64 L 819.64,687.06 L 819.63,687.29 L 819.74,687.93 L 820.63,690.26 L 821.06,691.08 L 821.59,693.08 L 821.72,695.67 L 821.58,696.40 L 821.68,697.32 L 822.35,697.72 L 822.50,697.67 L 823.04,697.76 L 823.35,697.84 L 824.14,698.15 L 826.91,699.71 L 827.86,700.36 L 829.74,701.23 L 830.18,701.40 L 830.91,701.57 L 831.69,701.57 L 832.11,701.41 L 832.67,701.77 L 833.03,703.28 L 833.04,703.81 L 833.07,704.47 L 833.10,704.74 L 833.22,704.90 L 833.29,704.92 L 833.55,704.60 L 834.16,703.60 L 834.25,703.45 L 834.42,702.75 L 834.50,702.33 L 834.66,701.11 L 834.73,700.43 L 834.88,698.72 L 834.96,697.80 L 835.10,695.62 L 835.17,694.48 L 835.29,691.87 L 835.35,690.52 L 835.47,687.51 L 835.52,685.95 L 835.62,682.57 L 835.74,677.10 L 835.81,673.72 L 835.99,667.27 L 836.04,665.71 L 836.14,662.77 L 836.20,661.34 L 836.31,658.70 L 836.37,657.43 L 836.48,655.17 L 836.54,654.10 L 836.66,652.30 L 836.72,651.47 L 836.84,650.21 L 837.01,649.00 L 837.03,648.88 L 837.09,649.10 L 837.12,649.29 L 837.17,650.11 L 837.19,650.59 L 837.25,651.97 L 837.27,652.72 L 837.32,654.64 L 837.35,655.66 L 837.40,658.08 L 837.42,659.35 L 837.47,662.24 L 837.49,663.75 L 837.53,667.09 L 837.55,668.81 L 837.60,672.57 L 837.62,674.50 L 837.65,678.65 L 837.67,680.77 L 837.71,685.28 L 837.72,687.58 L 837.76,692.42 L 837.77,694.88 L 837.80,700.02 L 837.82,705.23 L 837.86,716.43 L 837.90,734.17 L 837.91,740.26 L 837.91,752.01 L 837.91,757.79 L 837.89,768.72 L 837.89,771.39 L 837.87,776.53 L 837.87,779.07 L 837.85,783.93 L 837.84,786.31 L 837.82,790.85 L 837.81,793.07 L 837.79,797.25 L 837.78,799.30 L 837.76,803.10 L 837.74,804.95 L 837.71,808.34 L 837.70,809.98 L 837.67,812.92 L 837.65,814.34 L 837.62,816.81 L 837.60,817.98 L 837.57,819.95 L 837.55,820.86 L 837.51,822.29 L 837.49,822.94 L 837.45,823.80 L 837.39,824.42 L 837.32,824.60 L 836.77,824.89 L 836.58,824.96 L 836.03,825.09 L 835.72,825.15 L 834.90,825.27 L 834.46,825.32 L 833.32,825.42 L 832.71,825.46 L 831.20,825.54 L 830.40,825.58 L 828.47,825.65 L 827.45,825.69 L 825.06,825.74 L 823.80,825.77 L 820.89,825.82 L 819.36,825.84 L 815.88,825.87 L 814.06,825.89 L 809.97,825.92 L 807.83,825.93 L 803.07,825.95 L 800.60,825.96 L 795.11,825.98 L 792.27,825.98 L 786.02,825.99 L 782.79,825.99 L 775.72,826.00 L 764.14,826.00 L 691.50,826.00 L 692.13,727.25 L 692.17,720.46 L 692.26,707.34 L 692.31,700.88 L 692.42,688.63 L 692.44,685.64 L 692.50,679.86 L 692.52,677.00 L 692.58,671.54 L 692.61,668.85 L 692.66,663.73 L 692.69,661.22 L 692.75,656.48 L 692.77,654.16 L 692.83,649.85 L 692.86,647.74 L 692.91,643.88 L 692.94,642.01 L 692.99,638.63 L 693.02,637.00 L 693.07,634.15 L 693.10,632.79 L 693.15,630.50 L 693.17,629.42 L 693.22,627.72 L 693.24,626.94 L 693.29,625.87 L 693.35,625.00 L 693.39,624.76 L 693.48,623.59 L 693.52,622.91 L 693.61,620.92 L 693.66,619.84 L 693.75,617.14 L 693.79,615.72 L 693.88,612.41 L 693.92,610.69 L 694.00,606.88 L 694.04,604.92 L 694.11,600.71 L 694.29,587.06 L 694.31,584.30 L 694.38,579.24 L 694.41,576.79 L 694.50,572.35 L 694.54,570.21 L 694.64,566.42 L 694.69,564.61 L 694.80,561.48 L 694.85,560.01 L 694.98,557.57 L 695.04,556.44 L 695.18,554.71 L 695.25,553.94 L 695.40,552.94 L 695.63,552.29 L 695.77,552.24 L 695.99,551.91 L 696.09,551.70 L 696.21,551.11 L 696.18,548.76 L 696.07,547.99 L 695.95,547.00 L 695.92,546.59 L 696.02,546.26 L 696.11,546.17 M 428.60,203.02 L 429.12,203.07 L 429.34,203.11 L 429.59,203.23 L 429.68,203.29 L 429.65,203.47 L 429.30,203.79 L 429.01,203.98 L 428.79,204.65 L 428.73,205.01 L 428.90,205.80 L 429.02,206.17 L 429.48,206.75 L 430.37,207.04 L 430.46,207.02 L 430.90,207.04 L 431.16,207.06 L 431.87,207.15 L 434.58,207.58 L 435.63,207.78 L 437.87,207.73 L 440.73,207.08 L 441.63,206.67 L 442.94,206.43 L 444.35,206.95 L 444.72,207.32 L 444.74,207.78 L 443.70,208.12 L 443.23,208.16 L 442.14,208.25 L 440.76,208.38 L 440.42,208.41 L 439.83,209.00 L 439.56,209.34 L 439.22,210.23 L 439.09,210.68 L 439.10,211.47 L 439.68,212.08 L 439.90,212.10 L 440.77,212.23 L 442.25,212.49 L 442.73,212.58 L 443.49,212.45 L 444.00,211.89 L 444.00,211.69 L 444.39,211.46 L 444.65,211.38 L 445.62,211.41 L 446.18,211.46 L 447.79,211.75 L 451.00,212.48 L 451.41,212.58 L 452.40,212.76 L 453.64,212.92 L 453.80,212.93 L 454.51,213.35 L 454.92,213.61 L 456.03,214.45 L 456.61,214.91 L 457.97,216.06 L 460.14,218.01 L 461.62,219.39 L 464.57,221.72 L 465.25,222.23 L 466.41,222.98 L 467.68,223.60 L 468.28,223.76 L 469.08,224.38 L 469.39,225.43 L 469.26,225.77 L 469.53,226.71 L 470.56,228.05 L 470.81,228.26 L 471.50,229.03 L 471.87,229.46 L 472.73,230.59 L 473.61,231.77 L 475.53,234.65 L 476.46,236.09 L 477.96,238.67 L 478.28,239.25 L 478.72,240.17 L 479.00,241.08 L 479.00,241.36 L 479.28,241.64 L 479.96,241.53 L 480.09,241.44 L 480.44,241.52 L 480.63,241.59 L 481.06,241.93 L 482.36,243.72 L 482.76,244.48 L 484.07,246.32 L 486.15,248.65 L 487.17,249.59 L 488.94,251.36 L 489.78,252.22 L 491.11,253.75 L 491.71,254.48 L 492.50,255.66 L 493.00,256.93 L 493.00,257.09 L 493.30,257.67 L 493.49,258.00 L 494.11,258.83 L 496.76,261.79 L 497.28,262.30 L 498.45,263.59 L 499.05,264.27 L 500.27,265.76 L 500.88,266.51 L 502.00,268.02 L 503.42,270.10 L 504.22,271.36 L 506.23,273.86 L 506.73,274.44 L 507.68,275.41 L 508.91,276.46 L 509.19,276.65 L 509.89,277.29 L 510.26,277.64 L 511.09,278.54 L 511.94,279.49 L 513.79,281.86 L 514.70,283.07 L 516.30,285.47 L 516.67,286.04 L 517.26,287.09 L 517.91,288.43 L 517.97,288.57 L 518.38,289.16 L 518.64,289.50 L 519.37,290.41 L 522.32,293.72 L 523.51,295.00 L 525.54,297.43 L 526.48,298.60 L 527.89,300.67 L 528.51,301.64 L 529.17,303.13 L 529.29,303.46 L 529.35,303.97 L 529.18,304.49 L 528.99,304.68 L 529.00,304.87 L 529.53,304.83 L 529.69,304.78 L 530.17,304.92 L 530.44,305.02 L 531.09,305.44 L 531.78,305.92 L 533.51,307.57 L 534.41,308.49 L 536.34,310.76 L 539.12,314.55 L 539.69,315.41 L 541.09,317.31 L 541.48,317.82 L 542.40,318.98 L 542.88,319.59 L 544.03,320.98 L 544.64,321.71 L 546.08,323.40 L 546.84,324.29 L 548.62,326.35 L 549.56,327.43 L 551.74,329.92 L 555.52,334.22 L 556.18,334.97 L 557.69,336.87 L 559.52,339.39 L 559.92,339.99 L 560.99,341.12 L 561.54,341.64 L 562.59,342.39 L 563.06,342.68 L 563.62,342.77 L 563.70,342.74 L 563.71,342.49 L 563.40,341.83 L 563.18,341.48 L 563.19,341.19 L 563.85,341.40 L 564.16,341.60 L 564.66,342.38 L 565.00,343.73 L 565.00,344.17 L 565.19,344.67 L 565.66,344.67 L 565.75,344.58 L 566.06,344.73 L 566.23,344.85 L 566.66,345.38 L 566.88,345.68 L 567.37,346.51 L 568.11,348.00 L 568.61,349.10 L 569.71,350.83 L 569.97,351.19 L 570.45,351.68 L 571.03,352.00 L 571.27,352.00 L 572.00,352.31 L 572.40,352.51 L 573.37,353.13 L 574.39,353.82 L 576.65,355.71 L 577.74,356.67 L 579.45,358.48 L 579.80,358.89 L 580.23,359.56 L 580.37,360.22 L 580.28,360.35 L 580.49,360.95 L 580.65,361.29 L 581.28,362.21 L 581.64,362.70 L 582.61,363.82 L 584.34,365.61 L 584.97,366.21 L 586.09,367.42 L 586.61,368.01 L 587.44,369.10 L 587.81,369.62 L 588.26,370.46 L 588.43,371.32 L 588.27,371.74 L 588.57,372.70 L 588.81,373.19 L 589.77,374.16 L 590.32,374.64 L 591.76,375.47 L 594.25,376.38 L 594.69,376.49 L 595.97,377.21 L 596.65,377.64 L 598.30,378.89 L 599.15,379.58 L 601.03,381.23 L 601.98,382.09 L 603.94,384.00 L 605.89,385.94 L 609.43,389.98 L 610.24,390.95 L 611.59,392.76 L 613.05,395.10 L 613.67,396.32 L 614.79,398.23 L 615.33,399.10 L 616.33,400.37 L 616.82,400.93 L 617.74,401.60 L 619.07,402.00 L 619.38,402.00 L 620.13,402.38 L 620.51,402.63 L 621.37,403.47 L 621.81,403.94 L 622.73,405.20 L 624.14,407.50 L 624.37,407.91 L 624.64,408.46 L 624.75,408.68 L 624.78,408.88 L 624.76,408.93 L 624.54,408.80 L 623.92,408.25 L 623.56,407.91 L 622.34,407.37 L 620.38,407.00 L 620.07,407.00 L 619.28,406.80 L 618.86,406.68 L 617.94,406.27 L 615.20,404.51 L 614.79,404.17 L 613.58,403.37 L 612.93,402.97 L 611.38,402.11 L 606.37,399.84 L 604.76,399.25 L 601.78,397.83 L 601.12,397.48 L 600.05,396.84 L 599.00,396.04 L 598.59,395.60 L 597.61,394.83 L 597.06,394.44 L 595.54,393.66 L 594.69,393.26 L 592.33,392.32 L 591.68,392.07 L 590.15,391.52 L 587.50,390.59 L 586.81,390.35 L 584.85,389.65 L 583.79,389.28 L 581.32,388.39 L 573.50,385.53 L 569.09,383.91 L 559.88,381.23 L 555.21,380.00 L 545.58,378.10 L 540.72,377.26 L 530.81,376.15 L 525.82,375.69 L 515.75,375.36 L 510.71,375.29 L 500.61,375.75 L 495.57,376.07 L 485.58,377.31 L 480.61,378.03 L 470.86,380.06 L 456.64,383.99 L 453.01,385.18 L 446.02,387.78 L 442.57,389.13 L 435.92,392.09 L 432.63,393.62 L 426.27,396.96 L 423.12,398.68 L 417.01,402.43 L 413.98,404.36 L 408.06,408.54 L 405.13,410.69 L 399.38,415.34 L 396.52,417.72 L 390.88,422.86 L 382.50,431.16 L 379.46,434.33 L 373.83,440.82 L 371.09,444.10 L 366.06,450.84 L 363.61,454.24 L 359.15,461.26 L 356.99,464.81 L 353.07,472.17 L 351.18,475.89 L 347.79,483.62 L 346.78,486.04 L 347.19,484.90 L 348.92,480.83 L 350.67,476.83 L 351.57,474.95 L 353.38,471.27 L 354.30,469.58 L 356.68,464.54 L 357.25,463.03 L 357.44,462.42 L 357.75,461.30 L 357.77,460.95 L 358.03,459.59 L 358.38,458.43 L 358.63,457.77 L 359.76,454.99 L 360.44,453.70 L 361.37,451.88 L 361.86,450.81 L 362.03,450.38 L 362.31,449.61 L 362.36,449.37 L 362.40,449.00 L 362.32,449.00 L 362.32,448.49 L 362.79,447.73 L 363.20,447.25 L 364.43,445.38 L 365.09,443.95 L 365.24,443.36 L 365.41,442.25 L 365.32,441.77 L 365.15,441.63 L 364.71,441.42 L 364.33,441.39 L 363.45,441.38 L 362.82,441.42 L 360.60,441.32 L 360.02,441.20 L 359.81,441.11 L 359.45,440.92 L 359.38,440.81 L 359.40,440.24 L 359.79,440.00 L 360.14,440.00 L 360.89,439.75 L 360.84,439.54 L 360.72,439.38 L 360.43,439.03 L 360.20,438.80 L 359.35,437.49 L 359.00,436.45 L 359.00,436.02 L 358.56,434.85 L 357.88,433.81 L 357.38,433.20 L 356.31,431.92 L 355.68,431.25 L 354.35,429.88 L 353.65,429.20 L 352.22,427.86 L 351.51,427.26 L 350.10,426.09 L 349.46,425.62 L 348.23,424.75 L 347.72,424.48 L 346.80,424.06 L 346.50,424.05 L 343.87,423.95 L 342.61,423.80 L 342.18,423.68 L 341.46,423.41 L 341.27,423.21 L 341.00,422.79 L 341.00,422.51 L 340.80,422.09 L 340.46,421.63 L 340.21,421.33 L 339.65,420.67 L 339.29,420.28 L 338.52,419.44 L 338.06,418.97 L 336.08,416.95 L 334.88,415.78 L 332.38,413.37 L 331.00,412.10 L 327.12,408.39 L 324.84,406.11 L 323.94,405.14 L 323.07,404.20 L 322.71,403.79 L 322.04,403.01 L 321.79,402.68 L 321.34,402.09 L 321.20,401.87 L 321.00,401.48 L 321.00,401.38 L 320.68,400.52 L 320.19,399.71 L 319.82,399.23 L 318.10,397.16 L 317.00,396.11 L 314.17,393.18 L 313.52,392.39 L 313.32,392.10 L 313.00,391.58 L 313.00,391.47 L 312.82,390.95 L 312.54,390.47 L 312.34,390.17 L 311.37,388.89 L 310.75,388.23 L 309.16,385.93 L 308.79,385.12 L 308.68,384.75 L 308.50,384.04 L 308.50,383.75 L 308.29,382.77 L 307.95,382.10 L 307.69,381.78 L 306.42,380.51 L 305.50,380.00 L 303.04,378.15 L 301.66,376.67 L 301.34,376.03 L 299.75,373.74 L 298.30,372.10 L 297.59,371.49 L 295.76,369.59 L 295.34,369.00 L 295.20,368.75 L 295.00,368.29 L 295.00,368.13 L 294.71,367.33 L 294.27,367.00 L 294.00,367.00 L 293.33,366.78 L 293.09,366.46 L 293.12,366.25 L 293.21,364.77 L 293.09,364.01 L 292.95,363.76 L 292.61,363.35 L 292.37,363.28 L 291.84,363.23 L 291.50,363.36 L 290.44,363.50 L 290.00,363.28 L 290.00,363.04 L 289.35,362.19 L 288.39,361.63 L 287.78,361.43 L 286.71,360.91 L 285.86,360.36 L 285.39,360.01 L 283.43,358.42 L 282.48,357.50 L 280.66,355.66 L 280.03,354.85 L 279.46,354.08 L 279.28,353.76 L 279.00,353.18 L 279.00,352.98 L 278.40,352.29 L 277.51,352.00 L 276.95,352.00 L 274.66,351.57 L 272.83,350.93 L 272.04,350.52 L 270.54,349.62 L 269.90,349.03 L 269.74,348.66 L 269.50,347.87 L 269.49,347.32 L 269.54,346.11 L 269.64,345.27 L 269.52,341.63 L 268.80,339.41 L 268.08,338.27 L 266.53,336.33 L 265.50,335.65 L 264.94,335.62 L 263.76,335.76 L 263.07,336.13 L 261.60,337.08 L 260.71,337.85 L 259.75,338.63 L 259.37,338.87 L 259.29,338.85 L 259.20,338.69 L 259.25,338.46 L 259.40,337.89 L 259.54,337.44 L 259.80,336.50 L 259.81,336.20 L 259.71,336.23 L 259.45,336.39 L 259.19,336.64 L 258.60,337.27 L 258.16,337.77 L 255.91,339.43 L 254.19,339.89 L 253.17,339.82 L 250.60,340.05 L 249.04,340.55 L 248.60,340.92 L 247.47,341.66 L 247.00,341.77 L 247.00,341.59 L 246.42,341.43 L 245.57,341.70 L 245.03,341.99 L 243.92,342.52 L 243.55,342.55 L 243.55,342.33 L 243.67,341.72 L 243.91,341.11 L 244.18,340.43 L 244.36,340.00 L 244.75,339.08 L 244.99,338.52 L 245.70,336.77 L 246.08,335.74 L 246.21,335.33 L 246.43,334.59 L 246.47,334.36 L 246.49,334.00 L 246.42,334.00 L 246.43,333.78 L 246.63,333.44 L 246.81,333.20 L 247.76,332.01 L 248.46,331.26 L 250.25,329.08 L 250.67,328.47 L 250.80,328.24 L 251.00,327.81 L 251.00,327.70 L 250.74,327.21 L 250.33,327.34 L 250.01,327.61 L 249.30,328.30 L 248.84,328.83 L 247.88,330.01 L 247.37,330.69 L 248.76,328.67 L 253.81,321.74 L 261.72,311.45 L 263.04,309.78 L 266.27,306.00 L 267.96,304.05 L 271.77,299.84 L 273.73,297.70 L 277.94,293.25 L 280.08,291.02 L 284.51,286.53 L 286.73,284.29 L 291.17,279.94 L 293.38,277.80 L 297.67,273.79 L 299.77,271.84 L 303.70,268.34 L 309.00,263.89 L 312.73,260.91 L 320.43,255.16 L 324.31,252.33 L 332.26,246.90 L 336.27,244.23 L 344.45,239.15 L 348.56,236.65 L 356.93,231.92 L 361.13,229.60 L 369.65,225.25 L 373.92,223.13 L 382.54,219.19 L 386.86,217.27 L 395.55,213.75 L 408.63,208.97 L 409.57,208.65 L 411.15,208.12 L 411.88,207.88 L 413.08,207.50 L 413.63,207.33 L 414.49,207.10 L 414.88,207.00 L 415.45,206.91 L 415.96,206.85 L 416.33,207.13 L 416.26,208.10 L 416.18,208.41 L 416.20,208.92 L 416.24,209.15 L 416.48,209.50 L 416.78,209.82 L 417.98,210.01 L 418.68,210.02 L 420.60,209.61 L 424.16,208.31 L 425.06,207.91 L 426.44,207.12 L 427.05,206.74 L 427.77,206.06 L 428.04,205.74 L 428.01,205.29 L 427.00,205.00 L 426.72,205.00 L 426.29,204.71 L 426.00,204.00 L 426.00,203.72 L 426.66,203.30 L 428.25,203.02 M 189.26,484.69 L 189.42,483.33 L 189.55,482.29 M 189.95,479.14 L 189.97,478.98 L 189.97,478.94 M 207.26,407.83 L 205.84,411.88 L 206.69,409.40 L 208.07,405.51 L 208.52,404.37 M 212.66,393.91 L 209.82,401.00 L 211.05,397.84 L 212.57,394.02 L 215.83,386.47 L 217.50,382.71 L 218.31,381.00 M 234.96,349.91 L 233.16,352.98 L 229.57,359.22 L 227.83,362.36 L 224.42,368.61 L 222.89,371.59 L 222.12,373.10 L 222.86,371.58 L 226.71,364.27 L 228.67,360.62 L 232.81,353.41 L 234.92,349.82 L 238.42,344.21 M 507.00,826.00 L 508.91,826.00 L 509.38,826.00 M 188.39,492.07 L 187.98,496.50 L 188.39,492.07 Z" fill="rgba(213,71,54,1)"></path>
<path d="M 251.00,327.70 L 251.00,327.81 L 250.80,328.24 L 250.67,328.47 L 250.25,329.08 L 248.46,331.26 L 247.76,332.01 L 246.81,333.20 L 246.63,333.44 L 246.43,333.78 L 246.42,334.00 L 246.49,334.00 L 246.47,334.36 L 246.43,334.59 L 246.21,335.33 L 246.08,335.74 L 245.70,336.77 L 244.99,338.52 L 244.75,339.08 L 244.36,340.00 L 244.18,340.43 L 243.91,341.11 L 243.67,341.72 L 243.55,342.33 L 243.55,342.55 L 243.92,342.52 L 245.03,341.99 L 245.57,341.70 L 246.42,341.43 L 247.00,341.59 L 247.00,341.77 L 247.47,341.66 L 248.60,340.92 L 249.04,340.55 L 250.60,340.05 L 253.17,339.82 L 254.19,339.89 L 255.91,339.43 L 258.16,337.77 L 258.60,337.27 L 259.19,336.64 L 259.45,336.39 L 259.71,336.23 L 259.81,336.20 L 259.80,336.50 L 259.54,337.44 L 259.40,337.89 L 259.25,338.46 L 259.20,338.69 L 259.29,338.85 L 259.37,338.87 L 259.75,338.63 L 260.71,337.85 L 261.60,337.08 L 263.07,336.13 L 263.76,335.76 L 264.94,335.62 L 265.50,335.65 L 266.53,336.33 L 268.08,338.27 L 268.80,339.41 L 269.52,341.63 L 269.64,345.27 L 269.54,346.11 L 269.49,347.32 L 269.50,347.87 L 269.74,348.66 L 269.90,349.03 L 270.54,349.62 L 272.04,350.52 L 272.83,350.93 L 274.66,351.57 L 276.95,352.00 L 277.51,352.00 L 278.40,352.29 L 279.00,352.98 L 279.00,353.18 L 279.28,353.76 L 279.46,354.08 L 280.03,354.85 L 280.66,355.66 L 282.48,357.50 L 283.43,358.42 L 285.39,360.01 L 285.86,360.36 L 286.71,360.91 L 287.78,361.43 L 288.39,361.63 L 289.35,362.19 L 290.00,363.04 L 290.00,363.28 L 290.44,363.50 L 291.50,363.36 L 291.84,363.23 L 292.37,363.28 L 292.61,363.35 L 292.95,363.76 L 293.09,364.01 L 293.21,364.77 L 293.12,366.25 L 293.09,366.46 L 293.33,366.78 L 294.00,367.00 L 294.27,367.00 L 294.71,367.33 L 295.00,368.13 L 295.00,368.29 L 295.20,368.75 L 295.34,369.00 L 295.76,369.59 L 297.59,371.49 L 298.30,372.10 L 299.75,373.74 L 301.34,376.03 L 301.66,376.67 L 303.04,378.15 L 305.50,380.00 L 306.42,380.51 L 307.69,381.78 L 307.95,382.10 L 308.29,382.77 L 308.50,383.75 L 308.50,384.04 L 308.68,384.75 L 308.79,385.12 L 309.16,385.93 L 310.75,388.23 L 311.37,388.89 L 312.34,390.17 L 312.54,390.47 L 312.82,390.95 L 313.00,391.47 L 313.00,391.58 L 313.32,392.10 L 313.52,392.39 L 314.17,393.18 L 317.00,396.11 L 318.10,397.16 L 319.82,399.23 L 320.19,399.71 L 320.68,400.52 L 321.00,401.38 L 321.00,401.48 L 321.20,401.87 L 321.34,402.09 L 321.79,402.68 L 322.04,403.01 L 322.71,403.79 L 323.07,404.20 L 323.94,405.14 L 324.84,406.11 L 327.12,408.39 L 331.00,412.10 L 332.38,413.37 L 334.88,415.78 L 336.08,416.95 L 338.06,418.97 L 338.52,419.44 L 339.29,420.28 L 339.65,420.67 L 340.21,421.33 L 340.46,421.63 L 340.80,422.09 L 341.00,422.51 L 341.00,422.79 L 341.27,423.21 L 341.46,423.41 L 342.18,423.68 L 342.61,423.80 L 343.87,423.95 L 346.50,424.05 L 346.80,424.06 L 347.72,424.48 L 348.23,424.75 L 349.46,425.62 L 350.10,426.09 L 351.51,427.26 L 352.22,427.86 L 353.65,429.20 L 354.35,429.88 L 355.68,431.25 L 356.31,431.92 L 357.38,433.20 L 357.88,433.81 L 358.56,434.85 L 359.00,436.02 L 359.00,436.45 L 359.35,437.49 L 360.20,438.80 L 360.43,439.03 L 360.72,439.38 L 360.84,439.54 L 360.89,439.75 L 360.14,440.00 L 359.79,440.00 L 359.40,440.24 L 359.38,440.81 L 359.45,440.92 L 359.81,441.11 L 360.02,441.20 L 360.60,441.32 L 362.82,441.42 L 363.45,441.38 L 364.33,441.39 L 364.71,441.42 L 365.15,441.63 L 365.32,441.77 L 365.41,442.25 L 365.24,443.36 L 365.09,443.95 L 364.43,445.38 L 363.20,447.25 L 362.79,447.73 L 362.32,448.49 L 362.32,449.00 L 362.40,449.00 L 362.36,449.37 L 362.31,449.61 L 362.03,450.38 L 361.86,450.81 L 361.37,451.88 L 360.44,453.70 L 359.76,454.99 L 358.63,457.77 L 358.38,458.43 L 358.03,459.59 L 357.77,460.95 L 357.75,461.30 L 357.44,462.42 L 357.25,463.03 L 356.68,464.54 L 354.30,469.58 L 353.38,471.27 L 351.57,474.95 L 350.67,476.83 L 348.92,480.83 L 347.19,484.90 L 343.98,493.77 L 342.43,498.30 L 339.70,507.73 L 336.33,522.00 L 336.14,522.96 L 335.82,525.43 L 335.74,526.12 L 335.60,527.79 L 335.53,528.68 L 335.41,530.80 L 335.35,531.94 L 335.24,534.64 L 335.19,536.07 L 335.09,539.46 L 335.05,541.24 L 334.96,545.42 L 334.92,547.62 L 334.85,552.71 L 334.81,555.38 L 334.75,561.48 L 334.74,563.07 L 334.71,566.47 L 334.69,568.20 L 334.67,571.89 L 334.65,573.77 L 334.63,577.77 L 334.61,579.80 L 334.59,584.12 L 334.58,586.31 L 334.55,590.96 L 334.54,593.33 L 334.52,598.32 L 334.51,600.86 L 334.49,606.22 L 334.48,608.94 L 334.46,614.67 L 334.45,617.59 L 334.43,623.70 L 334.42,626.81 L 334.40,633.33 L 334.39,636.65 L 334.37,643.58 L 334.36,647.10 L 334.34,654.47 L 334.33,658.21 L 334.31,666.02 L 334.28,678.25 L 333.93,826.00 L 256.01,826.00 L 246.37,825.98 L 241.63,825.97 L 232.67,825.93 L 228.30,825.91 L 220.25,825.85 L 218.30,825.84 L 214.60,825.81 L 212.79,825.79 L 209.38,825.75 L 207.72,825.73 L 204.63,825.69 L 203.13,825.67 L 200.38,825.63 L 199.05,825.60 L 196.68,825.56 L 195.54,825.53 L 193.55,825.48 L 192.61,825.46 L 191.04,825.40 L 190.31,825.38 L 189.19,825.32 L 188.68,825.29 L 188.03,825.24 L 187.76,825.21 L 187.59,825.15 L 187.58,825.12 L 187.54,824.84 L 187.53,824.66 L 187.49,824.08 L 187.48,823.76 L 187.45,822.90 L 187.43,822.43 L 187.40,821.30 L 187.37,820.09 L 187.32,816.90 L 187.29,815.18 L 187.24,811.01 L 187.22,808.81 L 187.18,803.74 L 187.16,801.09 L 187.12,795.19 L 187.10,792.15 L 187.07,785.49 L 187.05,782.08 L 187.02,774.75 L 187.01,771.01 L 186.99,763.07 L 186.98,759.04 L 186.96,750.58 L 186.95,746.29 L 186.94,737.38 L 186.93,732.87 L 186.93,723.58 L 186.92,718.90 L 186.92,709.30 L 186.92,704.48 L 186.92,694.66 L 186.92,684.80 L 186.94,664.71 L 186.96,654.66 L 186.99,634.65 L 187.01,624.71 L 187.07,605.36 L 187.08,600.60 L 187.11,591.29 L 187.13,586.69 L 187.16,577.76 L 187.18,573.35 L 187.22,564.87 L 187.24,560.69 L 187.29,552.73 L 187.31,548.83 L 187.35,541.47 L 187.38,537.88 L 187.43,531.20 L 187.46,527.95 L 187.51,522.02 L 187.54,519.15 L 187.59,514.04 L 187.62,511.60 L 187.68,507.39 L 187.71,505.41 L 187.78,502.18 L 187.79,501.43 L 187.83,500.14 L 187.84,499.53 L 187.88,498.51 L 187.89,498.03 L 187.93,497.29 L 187.98,496.50 L 188.48,491.12 L 189.75,480.66 L 190.43,475.47 L 192.06,465.36 L 192.93,460.34 L 194.95,450.51 L 196.01,445.63 L 198.43,436.04 L 199.69,431.26 L 202.52,421.84 L 203.99,417.14 L 207.26,407.83 L 208.95,403.18 L 212.66,393.91 L 218.75,380.00 L 219.35,378.71 L 220.69,375.94 L 221.38,374.54 L 222.89,371.59 L 224.42,368.61 L 227.83,362.36 L 229.57,359.22 L 233.16,352.98 L 234.96,349.91 L 238.47,344.14 L 239.33,342.75 L 240.98,340.13 L 241.79,338.85 L 243.32,336.51 L 244.07,335.38 L 245.45,333.36 L 246.12,332.40 L 247.31,330.77 L 247.88,330.01 L 248.84,328.83 L 249.30,328.30 L 250.01,327.61 L 250.33,327.34 L 250.74,327.21 Z" fill="rgba(230,109,54,1)"></path>
<path d="M 429.00,826.06 L 429.00,825.64 L 429.50,824.19 L 429.82,823.38 L 430.94,821.22 L 431.56,820.05 L 433.24,817.27 L 436.33,812.50 L 437.94,810.11 L 441.56,805.56 L 443.43,803.33 L 447.53,799.13 L 449.63,797.07 L 454.15,793.25 L 456.45,791.39 L 461.33,787.99 L 463.81,786.34 L 468.99,783.40 L 471.61,781.99 L 477.04,779.55 L 479.78,778.40 L 485.38,776.50 L 493.93,774.29 L 495.18,774.04 L 498.08,773.63 L 499.58,773.44 L 502.88,773.15 L 506.26,772.90 L 513.56,772.77 L 517.20,772.77 L 524.09,773.14 L 525.73,773.27 L 528.73,773.62 L 532.63,774.28 L 535.55,774.92 L 541.34,776.73 L 544.23,777.71 L 549.90,780.17 L 552.72,781.48 L 558.19,784.54 L 560.90,786.14 L 566.11,789.75 L 568.67,791.62 L 573.53,795.72 L 575.91,797.82 L 580.35,802.36 L 582.51,804.67 L 586.46,809.59 L 591.74,817.34 L 596.99,826.00 L 514.58,826.00 L 508.91,826.00 L 497.99,826.01 L 492.62,826.02 L 482.45,826.05 L 479.97,826.06 L 475.18,826.07 L 472.83,826.08 L 468.31,826.10 L 466.09,826.11 L 461.87,826.14 L 459.80,826.15 L 455.91,826.18 L 454.00,826.19 L 450.47,826.22 L 448.74,826.24 L 445.59,826.27 L 444.06,826.28 L 441.32,826.32 L 440.00,826.34 L 437.70,826.37 L 436.61,826.39 L 434.77,826.43 L 433.92,826.45 L 432.58,826.49 L 431.98,826.50 L 431.17,826.55 L 430.58,826.61 L 430.14,826.78 L 429.46,826.70 L 429.18,826.60 Z" fill="rgba(246,159,79,1)"></path>
</g>
</svg><style>@media (prefers-color-scheme: light) { :root { filter: none; } }
@media (prefers-color-scheme: dark) { :root { filter: contrast(0.8333333333333334) brightness(1.7); } }
</style></svg>